<?xml version="1.0" encoding="UTF-8" standalone="no"?>
<svg width="439px" height="346px" viewBox="0 0 439 346" version="1.1" xmlns="http://www.w3.org/2000/svg" xmlns:xlink="http://www.w3.org/1999/xlink" xmlns:sketch="http://www.bohemiancoding.com/sketch/ns">
    <!-- Generator: Sketch 3.3.3 (12081) - http://www.bohemiancoding.com/sketch -->
    <title>bare</title>
    <desc>Created with Sketch.</desc>
    <defs></defs>
    <g id="Page-1" stroke="none" stroke-width="1" fill="none" fill-rule="evenodd" sketch:type="MSPage">
        <g id="bare" sketch:type="MSArtboardGroup">
            <g id="layer1-copy" sketch:type="MSLayerGroup">
                <g id="layer1" sketch:type="MSShapeGroup">
                    <g id="g3457" transform="translate(0.000000, 123.589041)" fill="#F44336">
                        <path d="M16.4598014,46.0287832 L35.5649813,46.0287832 L26.5099237,11.6613962 L26.3109108,11.6613962 L16.4598014,46.0287832 M20.7385799,1.6002342 L32.4802964,1.6002342 L51.5854763,72.725759 L42.4309122,72.725759 L37.3560978,53.2010989 L14.6687007,53.2010989 L9.39487338,72.725759 L0.240309353,72.725759 L20.7385799,1.6002342" id="path3394"></path>
                        <path d="M96.8794719,48.3199339 C96.6804115,51.7068916 96.1497209,54.9609911 95.2873842,58.082264 C94.4912849,61.1371474 93.2640489,63.8599724 91.6056604,66.250739 C89.947177,68.6415215 87.7580504,70.567419 85.0382489,72.0284475 C82.3847165,73.4230547 79.1341928,74.1203663 75.286646,74.1203663 C70.2449899,74.1203663 66.1984144,73.0578016 63.1469036,70.9326722 C60.1617094,68.7411374 57.8730763,65.8854859 56.2809885,62.3657334 C54.6888849,58.8459967 53.6274878,54.8945857 53.0967813,50.5114845 C52.632423,46.128415 52.400236,41.6789243 52.4002518,37.1629966 C52.400236,32.7135376 52.6655971,28.2972417 53.1962878,23.9141247 C53.7269942,19.4646815 54.8215496,15.4800599 56.4800014,11.960244 C58.1384216,8.44057073 60.4602288,5.61812977 63.445423,3.49292114 C66.4305856,1.30144977 70.3776547,0.20569032 75.286646,0.205611096 C82.5173971,0.20569032 87.7580504,2.13158785 91.0086216,5.98331954 C94.325446,9.83517799 96.0833885,15.280828 96.2824489,22.3202697 L87.1278849,22.3202697 C87.0615683,20.3280143 86.829318,18.4353116 86.4313396,16.6421772 C86.033282,14.7827484 85.369895,13.1889092 84.4412101,11.8606281 C83.5787942,10.4660842 82.3847165,9.3703089 80.8589928,8.57331804 C79.3995381,7.77645393 77.5420892,7.37800603 75.286646,7.3779268 C72.2351036,7.37800603 69.8137899,8.17491767 68.022705,9.76870927 C66.2315727,11.2962064 64.8384978,13.4213358 63.8434489,16.1440975 C62.9147165,18.8005805 62.2845036,21.9550641 61.9528259,25.6075797 C61.6874647,29.1937851 61.5548,33.0455802 61.5548158,37.1629966 C61.5548,41.2804606 61.6874489,45.1654663 61.9528259,48.8180136 C62.2845036,52.4041873 62.9147165,55.5586867 63.8434489,58.2814958 C64.8384978,60.9379155 66.2315727,63.0630449 68.022705,64.6568841 C69.8137899,66.1843337 72.2351036,66.9480506 75.286646,66.9480506 C77.9401151,66.9480506 80.0629094,66.3835656 81.6550446,65.2545797 C83.2471007,64.1256096 84.4743525,62.664597 85.3367683,60.8714943 C86.2654532,59.0784392 86.8624921,57.0861205 87.1278849,54.8945699 C87.4595309,52.7030351 87.6585439,50.5115004 87.7249237,48.3199339 L96.8794719,48.3199339" id="path3396"></path>
                        <path d="M148.576022,48.3199339 C148.376961,51.7068916 147.846255,54.9609911 146.983918,58.082264 C146.187835,61.1371474 144.960583,63.8599724 143.302194,66.250739 C141.643727,68.6415215 139.454584,70.567419 136.734799,72.0284475 C134.081266,73.4230547 130.830727,74.1203663 126.983196,74.1203663 C121.941524,74.1203663 117.894948,73.0578016 114.843453,70.9326722 C111.858259,68.7411374 109.56961,65.8854859 107.977522,62.3657334 C106.385419,58.8459967 105.324022,54.8945857 104.793331,50.5114845 C104.328957,46.128415 104.096786,41.6789243 104.096786,37.1629966 C104.096786,32.7135376 104.362131,28.2972417 104.892837,23.9141247 C105.423528,19.4646815 106.518099,15.4800599 108.176535,11.960244 C109.834955,8.44057073 112.156763,5.61812977 115.141973,3.49292114 C118.127135,1.30144977 122.074204,0.20569032 126.983196,0.205611096 C134.213931,0.20569032 139.454584,2.13158785 142.705155,5.98331954 C146.02198,9.83517799 147.779922,15.280828 147.978983,22.3202697 L138.824419,22.3202697 C138.758102,20.3280143 138.525868,18.4353116 138.127873,16.6421772 C137.729816,14.7827484 137.066445,13.1889092 136.13776,11.8606281 C135.275328,10.4660842 134.081266,9.3703089 132.555542,8.57331804 C131.096088,7.77645393 129.238639,7.37800603 126.983196,7.3779268 C123.931653,7.37800603 121.51034,8.17491767 119.719255,9.76870927 C117.928122,11.2962064 116.535032,13.4213358 115.539999,16.1440975 C114.61125,18.8005805 113.981053,21.9550641 113.649376,25.6075797 C113.384014,29.1937851 113.251334,33.0455802 113.25135,37.1629966 C113.251334,41.2804606 113.383983,45.1654663 113.649376,48.8180136 C113.981053,52.4041873 114.61125,55.5586867 115.539999,58.2814958 C116.535032,60.9379155 117.928122,63.0630449 119.719255,64.6568841 C121.51034,66.1843337 123.931653,66.9480506 126.983196,66.9480506 C129.636665,66.9480506 131.759459,66.3835656 133.351578,65.2545797 C134.94365,64.1256096 136.170886,62.664597 137.033318,60.8714943 C137.962003,59.0784392 138.559026,57.0861205 138.824419,54.8945699 C139.156065,52.7030351 139.355078,50.5115004 139.421458,48.3199339 L148.576022,48.3199339" id="path3398"></path>
                        <path d="M156.788384,1.6002342 L193.506147,1.6002342 L193.506147,9.37024553 L165.544922,9.37024553 L165.544922,31.684136 L191.914043,31.684136 L191.914043,39.4541473 L165.544922,39.4541473 L165.544922,64.9557319 L194.700209,64.9557319 L194.700209,72.725759 L156.788384,72.725759 L156.788384,1.6002342" id="path3400"></path>
                        <path d="M232.99917,20.029119 C232.99917,18.1696743 232.800062,16.4762193 232.402163,14.9487221 C232.070422,13.3549305 231.473414,12.0267286 230.610983,10.9641005 C229.748551,9.83517799 228.587774,8.97184516 227.128335,8.37408616 C225.735213,7.71004858 224.010508,7.37800603 221.954062,7.3779268 C218.172753,7.37800603 215.253875,8.37414954 213.197429,10.3664049 C211.207299,12.2923658 210.212235,15.1480015 210.212235,18.9333437 C210.212235,22.2539119 211.041429,24.8106998 212.699976,26.6037391 C214.358364,28.3968576 216.41481,29.8246913 218.869314,30.8872085 C221.390134,31.9498207 224.076824,32.9127695 226.929227,33.7760548 C229.848105,34.5730298 232.534796,35.6687893 234.989299,37.0633807 C237.510119,38.4580355 239.599645,40.383933 241.258191,42.8410733 C242.91658,45.2982928 243.745774,48.6852188 243.745774,53.0018671 C243.745774,57.1193311 243.049213,60.5394518 241.656249,63.2622768 C240.329443,65.9851018 238.60458,68.1434418 236.481817,69.737281 C234.359055,71.3311359 231.970868,72.460106 229.317414,73.1242069 C226.730278,73.7883237 224.17622,74.1203663 221.6554,74.1203663 C217.476191,74.1203663 213.993544,73.5890919 211.207299,72.5265272 C208.487529,71.4639625 206.298292,69.9365128 204.639935,67.94421 C203.047832,65.9519071 201.886928,63.4947193 201.157224,60.5726465 C200.493837,57.5842001 200.16216,54.1972742 200.16216,50.4118686 L208.918666,50.4118686 C208.918666,52.4041873 209.018378,54.396506 209.21717,56.3887931 C209.416278,58.3147064 209.946968,60.0745827 210.809242,61.6684218 C211.671673,63.2622768 212.998479,64.557284 214.789501,65.5534275 C216.580681,66.4831815 219.068263,66.9480506 222.252565,66.9480506 C223.977271,66.9480506 225.60258,66.6492028 227.128335,66.0515072 C228.654091,65.4538274 229.947659,64.6236893 231.00904,63.5611246 C232.136738,62.4321546 232.99917,61.1039526 233.596177,59.576503 C234.259501,58.0490692 234.591242,56.3224036 234.591242,54.3964902 C234.591242,51.8729129 234.09363,49.8141888 233.098724,48.220318 C232.169976,46.6264947 230.909486,45.2982928 229.317414,44.2356964 C227.791659,43.106758 226.000479,42.2102146 223.944191,41.546082 C221.953904,40.8155915 219.897458,40.0850852 217.774695,39.3545314 C215.718249,38.6240568 213.661803,37.8271293 211.605357,36.9637647 C209.615227,36.0340583 207.824047,34.8718776 206.231976,33.477207 C204.706268,32.0162261 203.445858,30.1899445 202.450793,27.9983622 C201.522076,25.8068591 201.057702,23.0840341 201.057718,19.8298871 C201.057702,18.1696743 201.289889,16.2437768 201.754247,14.0521787 C202.218606,11.7942861 203.180496,9.63594612 204.639935,7.57715868 C206.165659,5.51851384 208.288422,3.79184817 211.00835,2.39716169 C213.728119,0.936196621 217.343558,0.20569032 221.854508,0.205611096 C228.68717,0.20569032 233.662494,1.86593479 236.780479,5.18639205 C239.964623,8.44057073 241.623012,13.3881253 241.755645,20.029119 L232.99917,20.029119" id="path3402"></path>
                        <path d="M268.162292,7.3779268 C265.110781,7.37800603 262.689515,8.17491767 260.898335,9.76870927 C259.107155,11.2962064 257.714191,13.4213358 256.719127,16.1440975 C255.790378,18.8005805 255.160134,21.9550641 254.828551,25.6075797 C254.563127,29.1937851 254.430494,33.0455802 254.430494,37.1629966 C254.430494,41.2804606 254.563443,45.1654663 254.828551,48.8180136 C255.160134,52.4041873 255.790378,55.5586867 256.719127,58.2814958 C257.714191,60.9379155 259.107155,63.0630449 260.898335,64.6568841 C262.689515,66.1843337 265.110781,66.9480506 268.162292,66.9480506 C271.213803,66.9480506 273.635069,66.1843337 275.426249,64.6568841 C277.217271,63.0630449 278.577155,60.9379155 279.506062,58.2814958 C280.500968,55.5586867 281.131213,52.4041873 281.396637,48.8180136 C281.72822,45.1654663 281.894091,41.2804606 281.894091,37.1629966 C281.894091,33.0455802 281.72822,29.1937851 281.396637,25.6075797 C281.131213,21.9550641 280.500968,18.8005805 279.506062,16.1440975 C278.577155,13.4213358 277.217271,11.2962064 275.426249,9.76870927 C273.635069,8.17491767 271.213803,7.37800603 268.162292,7.3779268 M268.162292,0.205611096 C273.071299,0.20569032 277.018321,1.30144977 280.003515,3.49292114 C282.988709,5.61812977 285.310422,8.44057073 286.968968,11.960244 C288.627357,15.4800599 289.721976,19.4646815 290.252666,23.9141247 C290.783357,28.2972417 291.048623,32.7135376 291.048781,37.1629966 C291.048623,41.6789243 290.783357,46.128415 290.252666,50.5114845 C289.721976,54.8945857 288.627357,58.8459967 286.968968,62.3657334 C285.310422,65.8854859 282.988709,68.7411374 280.003515,70.9326722 C277.018321,73.0578016 273.071299,74.1203663 268.162292,74.1203663 C263.253285,74.1203663 259.306263,73.0578016 256.321069,70.9326722 C253.335875,68.7411374 251.014004,65.8854859 249.355616,62.3657334 C247.697227,58.8459967 246.602609,54.8945857 246.071918,50.5114845 C245.541227,46.128415 245.275961,41.6789243 245.275961,37.1629966 C245.275961,32.7135376 245.541227,28.2972417 246.071918,23.9141247 C246.602609,19.4646815 247.697227,15.4800599 249.355616,11.960244 C251.014004,8.44057073 253.335875,5.61812977 256.321069,3.49292114 C259.306263,1.30144977 263.253285,0.20569032 268.162292,0.205611096" id="path3404"></path>
                    </g>
                    <g id="g3406" transform="translate(88.138983, 211.906746)" fill="#000000">
                        <path d="M0.131825899,0.12461895 L8.76673094,0.12461895 L8.76673094,62.6001468 L37.2227022,62.6001468 L37.2227022,70.2622395 L0.131825899,70.2622395 L0.131825899,0.12461895" id="path3408"></path>
                        <path d="M43.6360187,0.12461895 L52.2709396,0.12461895 L52.2709396,70.2622395 L43.6360187,70.2622395 L43.6360187,0.12461895" id="path3410"></path>
                        <path d="M72.2023698,30.3800718 L82.112895,30.3800718 C83.0286964,30.3801035 84.1407568,30.2818344 85.4491079,30.0853753 C86.8228101,29.888948 88.1311295,29.3977925 89.3740662,28.6118929 C90.682354,27.8260726 91.7617151,26.6472867 92.6121655,25.0755351 C93.5279511,23.5038786 93.9858676,21.3755169 93.9858993,18.6904658 C93.9858676,14.9576964 93.0373353,12.1089849 91.1403022,10.1442836 C89.3086201,8.179709 86.2340806,7.1973821 81.9166518,7.19731872 L72.2023698,7.19731872 L72.2023698,30.3800718 M63.5674489,0.12461895 L85.0566216,0.12461895 C87.346141,0.124698174 89.5702935,0.419394658 91.7290475,1.0087084 C93.8877381,1.59816475 95.7848029,2.61322689 97.4202417,4.05389484 C99.1210158,5.42921904 100.462035,7.26286845 101.443329,9.55489059 C102.489928,11.8470237 103.013259,14.6957511 103.013306,18.1010728 C103.013259,19.6728243 102.784301,21.2445442 102.326447,22.8162007 C101.868483,24.3879681 101.181609,25.8286994 100.265839,27.1384105 C99.4153885,28.4482167 98.3360273,29.5942515 97.0277396,30.5765309 C95.7848029,31.5588895 94.378354,32.2792551 92.8084086,32.7376279 L92.8084086,32.9340869 C97.1258216,33.9819318 100.265791,36.0448072 102.228318,39.1227131 C104.256164,42.2006664 105.270111,45.9007322 105.270158,50.2229103 C105.270111,57.3611123 103.307632,62.5019252 99.3827209,65.6453332 C95.5231453,68.7232708 89.9300806,70.2622395 82.6035108,70.2622395 L63.5674489,70.2622395 L63.5674489,0.12461895 M72.2023698,63.1895398 L83.9772446,63.1895398 C86.2667799,63.1895398 88.1965597,62.8293569 89.7665683,62.1089913 C91.3365137,61.3886256 92.5794187,60.4390498 93.4952835,59.2602639 C94.4764835,58.0814779 95.1633424,56.706233 95.5558763,55.1345131 C96.0137612,53.5628249 96.2427194,51.9256187 96.2427511,50.2229103 C96.2427194,47.7998838 95.8829324,45.7697595 95.1633899,44.1325374 C94.4437683,42.4298766 93.4625367,41.0546316 92.2196633,40.0068025 C90.9767266,38.8935346 89.5048633,38.1076826 87.8040892,37.6492306 C86.1686504,37.1253557 84.4024302,36.8634103 82.5053971,36.8633786 L72.2023698,36.8633786 L72.2023698,63.1895398" id="path3412"></path>
                        <path d="M123.180849,31.9517758 L131.71764,31.9517758 C132.960561,31.9518075 134.399741,31.886337 136.03518,31.7553168 C137.735827,31.6244392 139.338504,31.1332203 140.843209,30.2818344 C142.347755,29.4305277 143.590676,28.0880338 144.571971,26.2543211 C145.618475,24.4207033 146.141885,21.8011861 146.141885,18.3957693 C146.141885,14.8594748 145.06246,12.1089849 142.90377,10.1442836 C140.745079,8.179709 137.605094,7.1973821 133.483813,7.19731872 L123.180849,7.19731872 L123.180849,31.9517758 M114.545944,0.12461895 L137.212576,0.12461895 C142.772878,0.124698174 147.155784,1.66366694 150.361137,4.74152525 C153.566489,7.81952616 155.169165,12.1417201 155.169324,17.7081389 C155.169165,19.607338 154.973065,21.5064896 154.580547,23.4055937 C154.253396,25.3047928 153.664619,27.0729717 152.814374,28.7101145 C151.963813,30.2818661 150.851784,31.6898621 149.478129,32.9340869 C148.104317,34.1129204 146.403511,34.9315076 144.375712,35.3898962 L144.375712,35.5863553 C147.450173,35.9138345 149.805122,37.1908421 151.440561,39.4174095 C153.141367,41.6440246 154.089899,44.2635418 154.286158,47.2759613 L154.874935,59.2602639 C154.939827,61.2249018 155.071194,62.8293569 155.267453,64.0736292 C155.463554,65.3179015 155.725338,66.3656989 156.052331,67.2170373 C156.379482,68.0029051 156.739237,68.6250333 157.131755,69.0834536 C157.58964,69.5418739 158.080288,69.934792 158.603698,70.2622395 L148.202446,70.2622395 C147.809928,69.8693056 147.482935,69.2799126 147.221309,68.4940606 C146.959525,67.7082086 146.730662,66.8568703 146.534403,65.9400297 C146.338144,64.9577187 146.174489,63.9753918 146.043755,62.9930649 C145.978863,61.9452675 145.912388,60.9956917 145.847496,60.1443375 L145.258719,49.2405993 C145.06246,46.8175727 144.604576,44.9511564 143.885065,43.6413819 C143.230763,42.2661528 142.413122,41.2510906 141.431986,40.5961796 C140.450691,39.8758457 139.371266,39.4501765 138.193871,39.3191721 C137.081683,39.1227447 135.969655,39.0245073 134.857626,39.0244756 L123.180849,39.0244756 L123.180849,70.2622395 L114.545944,70.2622395 L114.545944,0.12461895" id="path3414"></path>
                        <path d="M165.52436,0.12461895 L201.732245,0.12461895 L201.732245,7.78671169 L174.159281,7.78671169 L174.159281,29.7906789 L200.162173,29.7906789 L200.162173,37.4527716 L174.159281,37.4527716 L174.159281,62.6001468 L202.90964,62.6001468 L202.90964,70.2622395 L165.52436,70.2622395 L165.52436,0.12461895" id="path3416"></path>
                    </g>
                    <path d="M350.357715,188.207362 C347.558059,190.082102 342.521208,189.385993 339.107592,186.652559 C335.693977,183.919126 335.196264,180.183463 337.99592,178.308724 C340.795576,176.433984 345.832427,177.130092 349.246043,179.863526 C352.659658,182.596959 353.157371,186.332622 350.357715,188.207362 L350.357715,188.207362 L350.357715,188.207362 Z" id="path3418" fill="#263238"></path>
                    <g id="g3420" transform="translate(88.138983, 211.906746)" fill="#263238">
                        <path d="M0.131825899,0.12461895 L8.76673094,0.12461895 L8.76673094,62.6001468 L37.2227022,62.6001468 L37.2227022,70.2622395 L0.131825899,70.2622395 L0.131825899,0.12461895" id="path3422"></path>
                        <path d="M43.6360187,0.12461895 L52.2709396,0.12461895 L52.2709396,70.2622395 L43.6360187,70.2622395 L43.6360187,0.12461895" id="path3424"></path>
                        <path d="M72.2023698,30.3800718 L82.112895,30.3800718 C83.0286964,30.3801035 84.1407568,30.2818344 85.4491079,30.0853753 C86.8228101,29.888948 88.1311295,29.3977925 89.3740662,28.6118929 C90.682354,27.8260726 91.7617151,26.6472867 92.6121655,25.0755351 C93.5279511,23.5038786 93.9858676,21.3755169 93.9858993,18.6904658 C93.9858676,14.9576964 93.0373353,12.1089849 91.1403022,10.1442836 C89.3086201,8.179709 86.2340806,7.1973821 81.9166518,7.19731872 L72.2023698,7.19731872 L72.2023698,30.3800718 M63.5674489,0.12461895 L85.0566216,0.12461895 C87.346141,0.124698174 89.5702935,0.419394658 91.7290475,1.0087084 C93.8877381,1.59816475 95.7848029,2.61322689 97.4202417,4.05389484 C99.1210158,5.42921904 100.462035,7.26286845 101.443329,9.55489059 C102.489928,11.8470237 103.013259,14.6957511 103.013306,18.1010728 C103.013259,19.6728243 102.784301,21.2445442 102.326447,22.8162007 C101.868483,24.3879681 101.181609,25.8286994 100.265839,27.1384105 C99.4153885,28.4482167 98.3360273,29.5942515 97.0277396,30.5765309 C95.7848029,31.5588895 94.378354,32.2792551 92.8084086,32.7376279 L92.8084086,32.9340869 C97.1258216,33.9819318 100.265791,36.0448072 102.228318,39.1227131 C104.256164,42.2006664 105.270111,45.9007322 105.270158,50.2229103 C105.270111,57.3611123 103.307632,62.5019252 99.3827209,65.6453332 C95.5231453,68.7232708 89.9300806,70.2622395 82.6035108,70.2622395 L63.5674489,70.2622395 L63.5674489,0.12461895 M72.2023698,63.1895398 L83.9772446,63.1895398 C86.2667799,63.1895398 88.1965597,62.8293569 89.7665683,62.1089913 C91.3365137,61.3886256 92.5794187,60.4390498 93.4952835,59.2602639 C94.4764835,58.0814779 95.1633424,56.706233 95.5558763,55.1345131 C96.0137612,53.5628249 96.2427194,51.9256187 96.2427511,50.2229103 C96.2427194,47.7998838 95.8829324,45.7697595 95.1633899,44.1325374 C94.4437683,42.4298766 93.4625367,41.0546316 92.2196633,40.0068025 C90.9767266,38.8935346 89.5048633,38.1076826 87.8040892,37.6492306 C86.1686504,37.1253557 84.4024302,36.8634103 82.5053971,36.8633786 L72.2023698,36.8633786 L72.2023698,63.1895398" id="path3426"></path>
                        <path d="M123.180849,31.9517758 L131.71764,31.9517758 C132.960561,31.9518075 134.399741,31.886337 136.03518,31.7553168 C137.735827,31.6244392 139.338504,31.1332203 140.843209,30.2818344 C142.347755,29.4305277 143.590676,28.0880338 144.571971,26.2543211 C145.618475,24.4207033 146.141885,21.8011861 146.141885,18.3957693 C146.141885,14.8594748 145.06246,12.1089849 142.90377,10.1442836 C140.745079,8.179709 137.605094,7.1973821 133.483813,7.19731872 L123.180849,7.19731872 L123.180849,31.9517758 M114.545944,0.12461895 L137.212576,0.12461895 C142.772878,0.124698174 147.155784,1.66366694 150.361137,4.74152525 C153.566489,7.81952616 155.169165,12.1417201 155.169324,17.7081389 C155.169165,19.607338 154.973065,21.5064896 154.580547,23.4055937 C154.253396,25.3047928 153.664619,27.0729717 152.814374,28.7101145 C151.963813,30.2818661 150.851784,31.6898621 149.478129,32.9340869 C148.104317,34.1129204 146.403511,34.9315076 144.375712,35.3898962 L144.375712,35.5863553 C147.450173,35.9138345 149.805122,37.1908421 151.440561,39.4174095 C153.141367,41.6440246 154.089899,44.2635418 154.286158,47.2759613 L154.874935,59.2602639 C154.939827,61.2249018 155.071194,62.8293569 155.267453,64.0736292 C155.463554,65.3179015 155.725338,66.3656989 156.052331,67.2170373 C156.379482,68.0029051 156.739237,68.6250333 157.131755,69.0834536 C157.58964,69.5418739 158.080288,69.934792 158.603698,70.2622395 L148.202446,70.2622395 C147.809928,69.8693056 147.482935,69.2799126 147.221309,68.4940606 C146.959525,67.7082086 146.730662,66.8568703 146.534403,65.9400297 C146.338144,64.9577187 146.174489,63.9753918 146.043755,62.9930649 C145.978863,61.9452675 145.912388,60.9956917 145.847496,60.1443375 L145.258719,49.2405993 C145.06246,46.8175727 144.604576,44.9511564 143.885065,43.6413819 C143.230763,42.2661528 142.413122,41.2510906 141.431986,40.5961796 C140.450691,39.8758457 139.371266,39.4501765 138.193871,39.3191721 C137.081683,39.1227447 135.969655,39.0245073 134.857626,39.0244756 L123.180849,39.0244756 L123.180849,70.2622395 L114.545944,70.2622395 L114.545944,0.12461895" id="path3428"></path>
                        <path d="M165.52436,0.12461895 L201.732245,0.12461895 L201.732245,7.78671169 L174.159281,7.78671169 L174.159281,29.7906789 L200.162173,29.7906789 L200.162173,37.4527716 L174.159281,37.4527716 L174.159281,62.6001468 L202.90964,62.6001468 L202.90964,70.2622395 L165.52436,70.2622395 L165.52436,0.12461895" id="path3430"></path>
                    </g>
                    <path d="M299.378076,0.426106621 L438.473947,1.2263932 L438.473947,285.326036 L372.922968,285.326036 L372.922968,342.145955 L366.995472,345.572033 L366.995472,61.2474427 L371.558019,56.6798136 L299.378076,0.426106621 Z" id="path3432" stroke="#424242" fill="#263238"></path>
                </g>
            </g>
        </g>
    </g>
</svg>