<?xml version="1.0" encoding="UTF-8" standalone="no"?>
<svg width="512px" height="512px" viewBox="0 0 512 512" version="1.1" xmlns="http://www.w3.org/2000/svg" xmlns:xlink="http://www.w3.org/1999/xlink" xmlns:sketch="http://www.bohemiancoding.com/sketch/ns">
    <!-- Generator: Sketch 3.3.3 (12081) - http://www.bohemiancoding.com/sketch -->
    <title>icon</title>
    <desc>Created with Sketch.</desc>
    <defs>
        <linearGradient x1="0.25781251%" y1="49.7500002%" x2="101.257813%" y2="49.7500002%" id="linearGradient-1">
            <stop stop-color="#3023AE" offset="0%"></stop>
            <stop stop-color="#53A0FE" offset="47.5247532%"></stop>
            <stop stop-color="#B4ED50" offset="100%"></stop>
        </linearGradient>
        <linearGradient x1="0%" y1="44.2748944%" x2="101.999998%" y2="100.999999%" id="linearGradient-2">
            <stop stop-color="#3023AE" offset="0%"></stop>
            <stop stop-color="#C96DD8" offset="100%"></stop>
        </linearGradient>
        <radialGradient cx="50%" cy="50%" fx="50%" fy="50%" r="100%" id="radialGradient-3">
            <stop stop-color="#A1887F" offset="0%"></stop>
            <stop stop-color="#3E2723" offset="100%"></stop>
        </radialGradient>
    </defs>
    <g id="Page-1" stroke="none" stroke-width="1" fill="none" fill-rule="evenodd" sketch:type="MSPage">
        <g id="icon" sketch:type="MSArtboardGroup">
            <path d="M339.79734,277.193241 C339.79734,169.657167 280.716793,189.191469 280.716793,189.191469 C231.989729,178.402972 232.936231,165.251838 280.730042,150.11655 C280.730042,150.11655 339.79734,169.657167 339.79734,62.1210937 C393.740138,62.1210937 437.469415,110.266634 437.469415,169.657167 C437.469415,229.047701 393.740138,277.193241 339.79734,277.193241 Z" id="Oval-1-Copy" fill="url(#linearGradient-1)" sketch:type="MSShapeGroup"></path>
            <path d="M172.20266,277.193241 C172.20266,169.657167 231.283207,189.191469 231.283207,189.191469 C280.010271,178.402972 279.063769,165.251838 231.269958,150.11655 C231.269958,150.11655 172.20266,169.657167 172.20266,62.1210937 C118.259862,62.1210937 74.5305852,110.266634 74.5305852,169.657167 C74.5305852,229.047701 118.259862,277.193241 172.20266,277.193241 Z" id="Oval-1-Copy-2" fill="url(#linearGradient-1)" sketch:type="MSShapeGroup"></path>
            <rect id="Rectangle-1" fill="url(#linearGradient-2)" sketch:type="MSShapeGroup" x="230.381095" y="91.9486178" width="51.2378095" height="357.930288"></rect>
            <path d="M228.926897,195.892695 L283.87213,146.708555 L228.088779,147.306454 L283.643837,193.289532 L228.926897,195.892695 Z" id="Path-1" stroke="url(#radialGradient-3)" stroke-width="5" stroke-linecap="round" stroke-linejoin="round" sketch:type="MSShapeGroup"></path>
        </g>
    </g>
</svg>