<?xml version="1.0" encoding="UTF-8" standalone="no"?>
<svg width="128px" height="128px" viewBox="0 0 128 128" version="1.1" xmlns="http://www.w3.org/2000/svg" xmlns:xlink="http://www.w3.org/1999/xlink" xmlns:sketch="http://www.bohemiancoding.com/sketch/ns">
    <!-- Generator: Sketch 3.3.3 (12081) - http://www.bohemiancoding.com/sketch -->
    <title>icon_128</title>
    <desc>Created with Sketch.</desc>
    <defs></defs>
    <g id="Page-1" stroke="none" stroke-width="1" fill="none" fill-rule="evenodd" sketch:type="MSPage">
        <g id="icon_128" sketch:type="MSArtboardGroup">
            <g id="layer1" sketch:type="MSLayerGroup" transform="translate(8.000000, 20.000000)">
                <g sketch:type="MSShapeGroup">
                    <g id="g3457" transform="translate(0.000000, 31.433051)" fill="#F44336">
                        <path d="M4.19931153,11.7067426 L9.07352598,11.7067426 L6.76335184,2.96590424 L6.71257861,2.96590424 L4.19931153,11.7067426 M5.29093609,0.406995982 L8.28654487,0.406995982 L13.1607593,18.4967248 L10.8251986,18.4967248 L9.5304851,13.5309153 L3.74235645,13.5309153 L2.39686975,18.4967248 L0.061308992,18.4967248 L5.29093609,0.406995982" id="path3394"></path>
                        <path d="M24.7164029,12.289463 C24.6656175,13.1508857 24.5302249,13.978518 24.310221,14.7723677 C24.107116,15.5493323 23.794017,16.2418427 23.3709202,16.8498989 C22.9477991,17.4579592 22.3892976,17.9477829 21.6954075,18.3193739 C21.0184243,18.6740717 20.1891335,18.8514226 19.207527,18.8514226 C17.9212731,18.8514226 16.8888893,18.581175 16.1103718,18.0406796 C15.3487732,17.4832951 14.7648851,16.7570022 14.3587032,15.861805 C13.9525173,14.9666119 13.6817281,13.9616287 13.5463314,12.8468516 C13.4278619,11.7320824 13.3686251,10.6004201 13.3686292,9.45186041 C13.3686251,8.3202061 13.4363255,7.19698633 13.5717181,6.08220512 C13.7071147,4.95055483 13.9863635,3.93712506 14.4094764,3.04191177 C14.8325814,2.14673475 15.4249331,1.4288885 16.1865316,0.888373007 C16.9481221,0.331004566 17.9551192,0.0523143009 19.207527,0.0522941516 C21.0522744,0.0523143009 22.3892976,0.542137951 23.2186005,1.52176913 C24.0648063,2.50143255 24.5133018,3.88645337 24.5640872,5.6768316 L22.2285264,5.6768316 C22.2116074,5.17013081 22.1523545,4.68874976 22.0508201,4.23269246 C21.9492656,3.75977415 21.7800188,3.35440466 21.5430878,3.01657593 C21.3230637,2.66189425 21.0184243,2.38319995 20.6291736,2.18049707 C20.2568298,1.97782643 19.7829476,1.87648708 19.207527,1.87646693 C18.4290014,1.87648708 17.811263,2.07916981 17.354312,2.48452721 C16.8973488,2.8730236 16.5419402,3.41351894 16.2880781,4.10601323 C16.051135,4.78165054 15.8903517,5.58394693 15.8057323,6.51291045 C15.738032,7.42500893 15.7041859,8.40465623 15.7041899,9.45186041 C15.7041859,10.4990767 15.738028,11.4871706 15.8057323,12.4161422 C15.8903517,13.3282326 16.051135,14.130533 16.2880781,14.8230394 C16.5419402,15.4986606 16.8973488,16.0391559 17.354312,16.4445254 C17.811263,16.8330097 18.4290014,17.0272499 19.207527,17.0272499 C19.8844941,17.0272499 20.4260725,16.8836814 20.8322665,16.5965405 C21.2384403,16.3094036 21.5515432,15.9378166 21.7715673,15.4817673 C22.0084983,15.0257302 22.160818,14.5190133 22.2285264,13.9616247 C22.3131377,13.4042401 22.363911,12.8468556 22.3808461,12.289463 L24.7164029,12.289463" id="path3396"></path>
                        <path d="M37.9054998,12.289463 C37.8547145,13.1508857 37.7193178,13.978518 37.4993139,14.7723677 C37.2962129,15.5493323 36.9831099,16.2418427 36.5600131,16.8498989 C36.1368961,17.4579592 35.5783905,17.9477829 34.8845044,18.3193739 C34.2075212,18.6740717 33.3782264,18.8514226 32.396624,18.8514226 C31.110366,18.8514226 30.0779822,18.581175 29.2994687,18.0406796 C28.5378702,17.4832951 27.953978,16.7570022 27.5477961,15.861805 C27.1416102,14.9666119 26.870821,13.9616287 26.7354284,12.8468516 C26.6169548,11.7320824 26.5577221,10.6004201 26.5577221,9.45186041 C26.5577221,8.3202061 26.6254184,7.19698633 26.760815,6.08220512 C26.8962076,4.95055483 27.1754604,3.93712506 27.5985694,3.04191177 C28.0216743,2.14673475 28.614026,1.4288885 29.3756286,0.888373007 C30.137219,0.331004566 31.1442161,0.0523143009 32.396624,0.0522941516 C34.2413673,0.0523143009 35.5783905,0.542137951 36.4076934,1.52176913 C37.2538992,2.50143255 37.7023948,3.88645337 37.7531801,5.6768316 L35.4176194,5.6768316 C35.4007003,5.17013081 35.3414514,4.68874976 35.239913,4.23269246 C35.1383585,3.75977415 34.9691157,3.35440466 34.7321847,3.01657593 C34.5121566,2.66189425 34.2075212,2.38319995 33.8182705,2.18049707 C33.4459267,1.97782643 32.9720445,1.87648708 32.396624,1.87646693 C31.6180983,1.87648708 31.00036,2.07916981 30.5434089,2.48452721 C30.0864458,2.8730236 29.7310331,3.41351894 29.477175,4.10601323 C29.2402279,4.78165054 29.0794487,5.58394693 28.9948293,6.51291045 C28.927129,7.42500893 28.8932788,8.40465623 28.8932828,9.45186041 C28.8932788,10.4990767 28.9271209,11.4871706 28.9948293,12.4161422 C29.0794487,13.3282326 29.2402279,14.130533 29.477175,14.8230394 C29.7310331,15.4986606 30.0864458,16.0391559 30.5434089,16.4445254 C31.00036,16.8330097 31.6180983,17.0272499 32.396624,17.0272499 C33.073591,17.0272499 33.6151695,16.8836814 34.0213594,16.5965405 C34.4275372,16.3094036 34.7406361,15.9378166 34.9606643,15.4817673 C35.1975953,15.0257302 35.3499109,14.5190133 35.4176194,13.9616247 C35.5022306,13.4042401 35.5530039,12.8468556 35.5699391,12.289463 L37.9054998,12.289463" id="path3398"></path>
                        <path d="M40.0006812,0.406995982 L49.3683108,0.406995982 L49.3683108,2.38318383 L42.2346954,2.38318383 L42.2346954,8.05839297 L48.9621249,8.05839297 L48.9621249,10.0345808 L42.2346954,10.0345808 L42.2346954,16.520533 L49.6729462,16.520533 L49.6729462,18.4967248 L40.0006812,18.4967248 L40.0006812,0.406995982" id="path3400"></path>
                        <path d="M59.4439795,5.09411119 C59.4439795,4.62118885 59.3931821,4.19048351 59.2916679,3.80198712 C59.2070324,3.39662972 59.0547208,3.05882114 58.8346926,2.78855735 C58.6146645,2.50143255 58.318521,2.28185657 57.9461812,2.12982538 C57.5907605,1.96093721 57.1507446,1.87648708 56.6260932,1.87646693 C55.6613856,1.87648708 54.9167061,2.1298415 54.3920547,2.63654228 C53.8843224,3.12638205 53.6304562,3.8526709 53.6304562,4.81541689 C53.6304562,5.65995446 53.8420046,6.31023578 54.2651418,6.7662689 C54.6882387,7.22232217 55.21289,7.58547063 55.839096,7.85570621 C56.4822209,8.12596597 57.1676636,8.37087779 57.8953837,8.59044168 C58.6400632,8.79314053 59.325506,9.0718308 59.9517119,9.42652457 C60.5948368,9.78123446 61.1279276,10.2710581 61.5510648,10.8959955 C61.9741616,11.5209531 62.18571,12.3823678 62.18571,13.4802436 C62.18571,14.5274599 62.0079997,15.3973172 61.6526193,16.0898276 C61.3141176,16.782338 60.8740614,17.33128 60.332491,17.7366495 C59.7909206,18.142023 59.1816337,18.4291599 58.5046706,18.5980642 C57.8446267,18.7669725 57.193022,18.8514226 56.549897,18.8514226 C55.4836752,18.8514226 54.5951638,18.7163008 53.8843224,18.4460532 C53.1904403,18.1758055 52.6319105,17.7873212 52.2088217,17.2806083 C51.8026359,16.7738954 51.50646,16.1489459 51.3202942,15.4057598 C51.1510474,14.6456925 51.066428,13.7842778 51.066428,12.8215157 L53.3004342,12.8215157 C53.3004342,13.3282326 53.3258733,13.8349495 53.37659,14.3416584 C53.4273875,14.831486 53.5627801,15.2790846 53.7827678,15.6844541 C54.0027959,16.0898276 54.3412976,16.4191936 54.7982325,16.672548 C55.2552078,16.9090173 55.8898531,17.0272499 56.702249,17.0272499 C57.1422649,17.0272499 57.5569224,16.9512423 57.9461812,16.7992273 C58.33544,16.6472162 58.665462,16.4360828 58.9362472,16.1658352 C59.2239514,15.8786983 59.4439795,15.5408897 59.5962912,15.1524054 C59.7655218,14.7639251 59.8501573,14.3247732 59.8501573,13.8349455 C59.8501573,13.1931108 59.7232041,12.6695047 59.4693783,12.2641271 C59.2324311,11.8587617 58.9108484,11.5209531 58.5046706,11.2506973 C58.1154119,10.9635685 57.6584366,10.7355459 57.1338256,10.5666336 C56.6260529,10.3808441 56.1014015,10.1950506 55.5598311,10.009245 C55.0351797,9.82345952 54.5105283,9.62077276 53.9858769,9.40118872 C53.4781446,9.16473158 53.0211693,8.86914807 52.6149915,8.51443415 C52.2257448,8.14285519 51.9041823,7.67836738 51.6503162,7.12097073 C51.4133771,6.56359423 51.2949035,5.87108382 51.2949075,5.0434395 C51.2949035,4.62118885 51.3541403,4.1313652 51.4726098,3.57396452 C51.5910794,2.99970283 51.836482,2.45076086 52.2088217,1.92713862 C52.5980725,1.40355265 53.1396429,0.964400692 53.8335653,0.609682742 C54.5274473,0.238107811 55.4498372,0.0523143009 56.6006945,0.0522941516 C58.3438793,0.0523143009 59.6132102,0.474573011 60.4086872,1.31908237 C61.2210428,2.14673475 61.6441396,3.40507232 61.6779777,5.09411119 L59.4439795,5.09411119" id="path3402"></path>
                        <path d="M68.4149811,1.87646693 C67.6364636,1.87648708 67.0187373,2.07916981 66.5617621,2.48452721 C66.1047868,2.8730236 65.7494065,3.41351894 65.4955403,4.10601323 C65.2585931,4.78165054 65.0978018,5.58394693 65.0132067,6.51291045 C64.9454902,7.42500893 64.9116521,8.40465623 64.9116521,9.45186041 C64.9116521,10.4990767 64.9455709,11.4871706 65.0132067,12.4161422 C65.0978018,13.3282326 65.2585931,14.130533 65.4955403,14.8230394 C65.7494065,15.4986606 66.1047868,16.0391559 66.5617621,16.4445254 C67.0187373,16.8330097 67.6364636,17.0272499 68.4149811,17.0272499 C69.1934987,17.0272499 69.8112249,16.8330097 70.2682002,16.4445254 C70.7251351,16.0391559 71.0720761,15.4986606 71.3090636,14.8230394 C71.5628894,14.130533 71.7236808,13.3282326 71.7913972,12.4161422 C71.8759924,11.4871706 71.9183101,10.4990767 71.9183101,9.45186041 C71.9183101,8.40465623 71.8759924,7.42500893 71.7913972,6.51291045 C71.7236808,5.58394693 71.5628894,4.78165054 71.3090636,4.10601323 C71.0720761,3.41351894 70.7251351,2.8730236 70.2682002,2.48452721 C69.8112249,2.07916981 69.1934987,1.87648708 68.4149811,1.87646693 M68.4149811,0.0522941516 C69.667393,0.0523143009 70.674378,0.331004566 71.4359765,0.888373007 C72.1975751,1.4288885 72.7899025,2.14673475 73.2130398,3.04191177 C73.6361366,3.93712506 73.9154015,4.95055483 74.0507941,6.08220512 C74.1861867,7.19698633 74.2538628,8.3202061 74.2539032,9.45186041 C74.2538628,10.6004201 74.1861867,11.7320824 74.0507941,12.8468516 C73.9154015,13.9616287 73.6361366,14.9666119 73.2130398,15.861805 C72.7899025,16.7570022 72.1975751,17.4832951 71.4359765,18.0406796 C70.674378,18.581175 69.667393,18.8514226 68.4149811,18.8514226 C67.1625693,18.8514226 66.1555843,18.581175 65.3939857,18.0406796 C64.6323872,17.4832951 64.0400193,16.7570022 63.6169225,15.861805 C63.1938257,14.9666119 62.9145607,13.9616287 62.7791681,12.8468516 C62.6437755,11.7320824 62.5760994,10.6004201 62.5760994,9.45186041 C62.5760994,8.3202061 62.6437755,7.19698633 62.7791681,6.08220512 C62.9145607,4.95055483 63.1938257,3.93712506 63.6169225,3.04191177 C64.0400193,2.14673475 64.6323872,1.4288885 65.3939857,0.888373007 C66.1555843,0.331004566 67.1625693,0.0523143009 68.4149811,0.0522941516" id="path3404"></path>
                    </g>
                    <g id="g3406" transform="translate(22.486483, 53.895357)" fill="#000000">
                        <path d="M0.0336321201,0.031694993 L2.23661473,0.031694993 L2.23661473,15.9214246 L9.49645249,15.9214246 L9.49645249,17.870165 L0.0336321201,17.870165 L0.0336321201,0.031694993" id="path3408"></path>
                        <path d="M11.1326517,0.031694993 L13.3356383,0.031694993 L13.3356383,17.870165 L11.1326517,17.870165 L11.1326517,0.031694993" id="path3410"></path>
                        <path d="M18.4206501,7.72672347 L20.9490757,7.72672347 C21.1827198,7.72673153 21.4664345,7.70173822 21.800228,7.65177176 C22.1506941,7.60181336 22.4844795,7.47689519 22.8015841,7.27701323 C23.1353614,7.07715141 23.4107337,6.77734459 23.6277051,6.37759275 C23.8613452,5.97786509 23.9781712,5.43654765 23.9781793,4.75364447 C23.9781712,3.80426961 23.7361766,3.07974182 23.2521955,2.580049 C22.7848871,2.08038842 22.0004944,1.83054805 20.8990091,1.83053193 L18.4206501,1.83053193 L18.4206501,7.72672347 M16.2176635,0.031694993 L21.7000948,0.031694993 C22.2842091,0.0317151424 22.8516466,0.106666849 23.4023994,0.256550114 C23.9531359,0.406469647 24.4371251,0.664635742 24.8543669,1.0310484 C25.2882774,1.38084184 25.6304052,1.84720354 25.8807583,2.43014558 C26.1477721,3.01311584 26.281287,3.73764767 26.2812991,4.60374106 C26.281287,5.0034929 26.222874,5.40323668 26.1060641,5.80296434 C25.9892258,6.20272021 25.8139867,6.56914898 25.5803507,6.90225469 C25.3633793,7.23538459 25.088007,7.52686165 24.7542297,7.77668993 C24.4371251,8.02653836 24.0783044,8.20975275 23.6777717,8.3263331 L23.6777717,8.37629956 C24.7792529,8.64280347 25.5803386,9.16746542 26.0810287,9.9502854 C26.5983835,10.7331175 26.857067,11.6741747 26.8570791,12.773457 C26.857067,14.5889534 26.3563889,15.8964434 25.355045,16.6959229 C24.3703696,17.4787509 22.9434374,17.870165 21.0742442,17.870165 L16.2176635,17.870165 L16.2176635,0.031694993 M18.4206501,16.071328 L21.4247184,16.071328 C22.0088368,16.071328 22.5011724,15.9797208 22.9017213,15.7965065 C23.3022541,15.6132921 23.6193506,15.3717815 23.8530108,15.0719746 C24.1033397,14.7721678 24.2785748,14.4223945 24.3787201,14.0226507 C24.4955382,13.622915 24.5539512,13.2065157 24.5539593,12.773457 C24.5539512,12.1571959 24.4621604,11.6408637 24.278587,11.2244604 C24.0949933,10.7914137 23.8446563,10.4416404 23.5275679,10.1751405 C23.2104633,9.89199724 22.8349537,9.69212737 22.4010433,9.57552687 C21.9838015,9.442287 21.533194,9.37566505 21.0492129,9.37565699 L18.4206501,9.37565699 L18.4206501,16.071328" id="path3412"></path>
                        <path d="M31.4265492,8.12646322 L33.6045005,8.12646322 C33.921601,8.12647128 34.2887722,8.10981982 34.706014,8.07649676 C35.1398922,8.04320996 35.5487754,7.91827568 35.9326637,7.70173822 C36.3165116,7.48522092 36.6336122,7.14377739 36.8839653,6.67739957 C37.1509549,6.21104593 37.28449,5.54481033 37.28449,4.67869276 C37.28449,3.7792884 37.0091015,3.07974182 36.458365,2.580049 C35.9076284,2.08038842 35.1065387,1.83054805 34.0550958,1.83053193 L31.4265492,1.83053193 L31.4265492,8.12646322 M29.2235665,0.031694993 L35.0063974,0.031694993 C36.4249711,0.0317151424 37.5431613,0.423129164 38.3609278,1.20593706 C39.1786943,1.98878122 39.5875775,3.08806755 39.5876179,4.5038041 C39.5875775,4.98683741 39.5375473,5.46985862 39.437406,5.95286775 C39.3539415,6.43590106 39.2037296,6.8856113 38.9868107,7.30199444 C38.769811,7.70174628 38.4861044,8.05984933 38.1356503,8.37629956 C37.7851559,8.67611847 37.3512374,8.88431408 36.8338947,9.00089846 L36.8338947,9.05086492 C37.6182673,9.13415444 38.2190745,9.45894249 38.6363163,10.0252371 C39.0702348,10.5915438 39.3122294,11.2577794 39.3623001,12.0239439 L39.512512,15.0719746 C39.5290676,15.5716513 39.5625826,15.9797208 39.6126532,16.2961832 C39.6626835,16.6126455 39.7294712,16.8791373 39.8128954,17.0956627 C39.8963599,17.2955366 39.9881426,17.4537657 40.0882838,17.5703581 C40.2051019,17.6869506 40.3302784,17.7868835 40.4638136,17.870165 L37.8101912,17.870165 C37.71005,17.770228 37.6266259,17.6203246 37.5598785,17.4204547 C37.4930907,17.2205849 37.4347019,17.0040595 37.3846313,16.7708746 C37.3345606,16.5210383 37.2928082,16.2711979 37.2594547,16.0213575 C37.2428991,15.7548657 37.2259397,15.5133551 37.209384,15.2968257 L37.0591722,12.5236206 C37.0091015,11.9073595 36.8922835,11.4326641 36.7087181,11.0995422 C36.5417891,10.749773 36.3331884,10.4916069 36.0828756,10.3250399 C35.8325224,10.1418336 35.557134,10.0335709 35.2567506,10.0002519 C34.9730035,9.95029346 34.6892969,9.92530822 34.4055902,9.92530016 L31.4265492,9.92530016 L31.4265492,17.870165 L29.2235665,17.870165 L29.2235665,0.031694993" id="path3414"></path>
                        <path d="M42.2294494,0.031694993 L51.4669963,0.031694993 L51.4669963,1.98043534 L44.432436,1.98043534 L44.432436,7.57682006 L51.0664313,7.57682006 L51.0664313,9.52556041 L44.432436,9.52556041 L44.432436,15.9214246 L51.7673798,15.9214246 L51.7673798,17.870165 L42.2294494,17.870165 L42.2294494,0.031694993" id="path3416"></path>
                    </g>
                    <path d="M89.3851118,47.8677683 C88.6708488,48.3445808 87.3858207,48.1675358 86.5149211,47.4723273 C85.6440215,46.7771187 85.5170424,45.827008 86.2313054,45.3501956 C86.9455684,44.8733831 88.2305965,45.0504281 89.1014961,45.7456367 C89.9723957,46.4408452 90.0993748,47.3909559 89.3851118,47.8677683 L89.3851118,47.8677683 L89.3851118,47.8677683 Z" id="path3418" fill="#263238"></path>
                    <g id="g3420" transform="translate(22.486483, 53.895357)" fill="#263238">
                        <path d="M0.0336321201,0.031694993 L2.23661473,0.031694993 L2.23661473,15.9214246 L9.49645249,15.9214246 L9.49645249,17.870165 L0.0336321201,17.870165 L0.0336321201,0.031694993" id="path3422"></path>
                        <path d="M11.1326517,0.031694993 L13.3356383,0.031694993 L13.3356383,17.870165 L11.1326517,17.870165 L11.1326517,0.031694993" id="path3424"></path>
                        <path d="M18.4206501,7.72672347 L20.9490757,7.72672347 C21.1827198,7.72673153 21.4664345,7.70173822 21.800228,7.65177176 C22.1506941,7.60181336 22.4844795,7.47689519 22.8015841,7.27701323 C23.1353614,7.07715141 23.4107337,6.77734459 23.6277051,6.37759275 C23.8613452,5.97786509 23.9781712,5.43654765 23.9781793,4.75364447 C23.9781712,3.80426961 23.7361766,3.07974182 23.2521955,2.580049 C22.7848871,2.08038842 22.0004944,1.83054805 20.8990091,1.83053193 L18.4206501,1.83053193 L18.4206501,7.72672347 M16.2176635,0.031694993 L21.7000948,0.031694993 C22.2842091,0.0317151424 22.8516466,0.106666849 23.4023994,0.256550114 C23.9531359,0.406469647 24.4371251,0.664635742 24.8543669,1.0310484 C25.2882774,1.38084184 25.6304052,1.84720354 25.8807583,2.43014558 C26.1477721,3.01311584 26.281287,3.73764767 26.2812991,4.60374106 C26.281287,5.0034929 26.222874,5.40323668 26.1060641,5.80296434 C25.9892258,6.20272021 25.8139867,6.56914898 25.5803507,6.90225469 C25.3633793,7.23538459 25.088007,7.52686165 24.7542297,7.77668993 C24.4371251,8.02653836 24.0783044,8.20975275 23.6777717,8.3263331 L23.6777717,8.37629956 C24.7792529,8.64280347 25.5803386,9.16746542 26.0810287,9.9502854 C26.5983835,10.7331175 26.857067,11.6741747 26.8570791,12.773457 C26.857067,14.5889534 26.3563889,15.8964434 25.355045,16.6959229 C24.3703696,17.4787509 22.9434374,17.870165 21.0742442,17.870165 L16.2176635,17.870165 L16.2176635,0.031694993 M18.4206501,16.071328 L21.4247184,16.071328 C22.0088368,16.071328 22.5011724,15.9797208 22.9017213,15.7965065 C23.3022541,15.6132921 23.6193506,15.3717815 23.8530108,15.0719746 C24.1033397,14.7721678 24.2785748,14.4223945 24.3787201,14.0226507 C24.4955382,13.622915 24.5539512,13.2065157 24.5539593,12.773457 C24.5539512,12.1571959 24.4621604,11.6408637 24.278587,11.2244604 C24.0949933,10.7914137 23.8446563,10.4416404 23.5275679,10.1751405 C23.2104633,9.89199724 22.8349537,9.69212737 22.4010433,9.57552687 C21.9838015,9.442287 21.533194,9.37566505 21.0492129,9.37565699 L18.4206501,9.37565699 L18.4206501,16.071328" id="path3426"></path>
                        <path d="M31.4265492,8.12646322 L33.6045005,8.12646322 C33.921601,8.12647128 34.2887722,8.10981982 34.706014,8.07649676 C35.1398922,8.04320996 35.5487754,7.91827568 35.9326637,7.70173822 C36.3165116,7.48522092 36.6336122,7.14377739 36.8839653,6.67739957 C37.1509549,6.21104593 37.28449,5.54481033 37.28449,4.67869276 C37.28449,3.7792884 37.0091015,3.07974182 36.458365,2.580049 C35.9076284,2.08038842 35.1065387,1.83054805 34.0550958,1.83053193 L31.4265492,1.83053193 L31.4265492,8.12646322 M29.2235665,0.031694993 L35.0063974,0.031694993 C36.4249711,0.0317151424 37.5431613,0.423129164 38.3609278,1.20593706 C39.1786943,1.98878122 39.5875775,3.08806755 39.5876179,4.5038041 C39.5875775,4.98683741 39.5375473,5.46985862 39.437406,5.95286775 C39.3539415,6.43590106 39.2037296,6.8856113 38.9868107,7.30199444 C38.769811,7.70174628 38.4861044,8.05984933 38.1356503,8.37629956 C37.7851559,8.67611847 37.3512374,8.88431408 36.8338947,9.00089846 L36.8338947,9.05086492 C37.6182673,9.13415444 38.2190745,9.45894249 38.6363163,10.0252371 C39.0702348,10.5915438 39.3122294,11.2577794 39.3623001,12.0239439 L39.512512,15.0719746 C39.5290676,15.5716513 39.5625826,15.9797208 39.6126532,16.2961832 C39.6626835,16.6126455 39.7294712,16.8791373 39.8128954,17.0956627 C39.8963599,17.2955366 39.9881426,17.4537657 40.0882838,17.5703581 C40.2051019,17.6869506 40.3302784,17.7868835 40.4638136,17.870165 L37.8101912,17.870165 C37.71005,17.770228 37.6266259,17.6203246 37.5598785,17.4204547 C37.4930907,17.2205849 37.4347019,17.0040595 37.3846313,16.7708746 C37.3345606,16.5210383 37.2928082,16.2711979 37.2594547,16.0213575 C37.2428991,15.7548657 37.2259397,15.5133551 37.209384,15.2968257 L37.0591722,12.5236206 C37.0091015,11.9073595 36.8922835,11.4326641 36.7087181,11.0995422 C36.5417891,10.749773 36.3331884,10.4916069 36.0828756,10.3250399 C35.8325224,10.1418336 35.557134,10.0335709 35.2567506,10.0002519 C34.9730035,9.95029346 34.6892969,9.92530822 34.4055902,9.92530016 L31.4265492,9.92530016 L31.4265492,17.870165 L29.2235665,17.870165 L29.2235665,0.031694993" id="path3428"></path>
                        <path d="M42.2294494,0.031694993 L51.4669963,0.031694993 L51.4669963,1.98043534 L44.432436,1.98043534 L44.432436,7.57682006 L51.0664313,7.57682006 L51.0664313,9.52556041 L44.432436,9.52556041 L44.432436,15.9214246 L51.7673798,15.9214246 L51.7673798,17.870165 L42.2294494,17.870165 L42.2294494,0.031694993" id="path3430"></path>
                    </g>
                    <path d="M76.3789169,0.108373938 L111.865791,0.311915033 L111.865791,72.5684716 L95.1420785,72.5684716 L95.1420785,87.0197805 L93.6298243,87.891153 L93.6298243,15.5773843 L94.7938453,14.4156751 L76.3789169,0.108373938 Z" id="path3432" stroke="#424242" fill="#263238"></path>
                </g>
            </g>
        </g>
    </g>
</svg>