<?xml version="1.0" encoding="UTF-8" standalone="no"?>
<!-- Created with Inkscape (http://www.inkscape.org/) -->

<svg
   xmlns:dc="http://purl.org/dc/elements/1.1/"
   xmlns:cc="http://creativecommons.org/ns#"
   xmlns:rdf="http://www.w3.org/1999/02/22-rdf-syntax-ns#"
   xmlns:svg="http://www.w3.org/2000/svg"
   xmlns="http://www.w3.org/2000/svg"
   xmlns:sodipodi="http://sodipodi.sourceforge.net/DTD/sodipodi-0.dtd"
   xmlns:inkscape="http://www.inkscape.org/namespaces/inkscape"
   width="744.09448819"
   height="1052.3622047"
   id="svg2"
   version="1.1"
   inkscape:version="0.48.2 r9819"
   sodipodi:docname="logo.svg">
  <defs
     id="defs4" />
  <sodipodi:namedview
     id="base"
     pagecolor="#ffffff"
     bordercolor="#666666"
     borderopacity="1.0"
     inkscape:pageopacity="0.0"
     inkscape:pageshadow="2"
     inkscape:zoom="0.49497475"
     inkscape:cx="482.07617"
     inkscape:cy="520.08237"
     inkscape:document-units="px"
     inkscape:current-layer="layer1"
     showgrid="false"
     inkscape:window-width="1280"
     inkscape:window-height="734"
     inkscape:window-x="2"
     inkscape:window-y="0"
     inkscape:window-maximized="0" />
  <metadata
     id="metadata7">
    <rdf:RDF>
      <cc:Work
         rdf:about="">
        <dc:format>image/svg+xml</dc:format>
        <dc:type
           rdf:resource="http://purl.org/dc/dcmitype/StillImage" />
        <dc:title></dc:title>
      </cc:Work>
    </rdf:RDF>
  </metadata>
  <g
     inkscape:label="Layer 1"
     inkscape:groupmode="layer"
     id="layer1">
    <g
       id="g3189"
       transform="translate(-664.68037,-62.629458)"
       inkscape:export-filename="/Users/joseluisrivas/Documents/al/graphics/logo_black.png"
       inkscape:export-xdpi="90"
       inkscape:export-ydpi="90">
      <path
         d="m 880.71179,479.31045 12.071,0 -5.72115,-21.69008 -0.12574,0 -6.22411,21.69008 m 2.70341,-28.03992 7.41863,0 12.071,44.88902 -5.78402,0 -3.20636,-12.32248 -14.33431,0 -3.3321,12.32248 -5.78402,0 12.95118,-44.88902"
         style="font-size:62.86977386px;font-style:normal;font-variant:normal;font-weight:normal;font-stretch:normal;text-align:start;line-height:125%;letter-spacing:0px;word-spacing:0px;writing-mode:lr-tb;text-anchor:start;fill:#000000;fill-opacity:1;stroke:none;font-family:Helvetica Neue LT Com;-inkscape-font-specification:Helvetica Neue LT Com"
         id="path3165"
         inkscape:connector-curvature="0" />
      <path
         d="m 931.5224,480.75645 c -0.12577,2.13759 -0.46107,4.19133 -1.00591,6.16124 -0.50299,1.92801 -1.27838,3.64645 -2.32618,5.15532 -1.04786,1.50888 -2.43099,2.72436 -4.14941,3.64645 -1.67655,0.88017 -3.73029,1.32026 -6.16124,1.32026 -3.18541,0 -5.74211,-0.67061 -7.67011,-2.01183 -1.8861,-1.38313 -3.3321,-3.1854 -4.33801,-5.4068 -1.00592,-2.22139 -1.67653,-4.71522 -2.01184,-7.4815 -0.29339,-2.76626 -0.44009,-5.57444 -0.44008,-8.42455 -10e-6,-2.80816 0.16765,-5.59539 0.50295,-8.36168 0.33531,-2.80815 1.02687,-5.32294 2.07471,-7.54438 1.04782,-2.22135 2.51478,-4.00266 4.40088,-5.34393 1.88608,-1.38309 4.37991,-2.07465 7.4815,-2.0747 4.56852,5e-5 7.87966,1.21553 9.93343,3.64645 2.09563,2.431 3.20633,5.86788 3.3321,10.31064 l -5.78402,0 c -0.0419,-1.25736 -0.18864,-2.45189 -0.44009,-3.58358 -0.2515,-1.17353 -0.67064,-2.17944 -1.2574,-3.01775 -0.54489,-0.88013 -1.29933,-1.5717 -2.26331,-2.0747 -0.92211,-0.50292 -2.09568,-0.75439 -3.52071,-0.75444 -1.92802,5e-5 -3.45785,0.503 -4.58949,1.50888 -1.13167,0.96404 -2.01184,2.30526 -2.64053,4.02366 -0.58679,1.67657 -0.98497,3.66744 -1.19453,5.97263 -0.16766,2.26334 -0.25148,4.6943 -0.25147,7.2929 -10e-6,2.59863 0.0838,5.05055 0.25147,7.35576 0.20956,2.26332 0.60774,4.2542 1.19453,5.97263 0.62869,1.67653 1.50886,3.01775 2.64053,4.02366 1.13164,0.96401 2.66147,1.44601 4.58949,1.44601 1.67651,0 3.01773,-0.35626 4.02367,-1.06879 1.00589,-0.71252 1.78129,-1.6346 2.32618,-2.76627 0.58676,-1.13164 0.96398,-2.38904 1.13166,-3.77218 0.20954,-1.38313 0.33528,-2.76626 0.37722,-4.14941 l 5.78401,0"
         style="font-size:62.86977386px;font-style:normal;font-variant:normal;font-weight:normal;font-stretch:normal;text-align:start;line-height:125%;letter-spacing:0px;word-spacing:0px;writing-mode:lr-tb;text-anchor:start;fill:#000000;fill-opacity:1;stroke:none;font-family:Helvetica Neue LT Com;-inkscape-font-specification:Helvetica Neue LT Com"
         id="path3167"
         inkscape:connector-curvature="0" />
      <path
         d="m 964.18522,480.75645 c -0.12577,2.13759 -0.46108,4.19133 -1.00592,6.16124 -0.50298,1.92801 -1.27838,3.64645 -2.32618,5.15532 -1.04785,1.50888 -2.43099,2.72436 -4.1494,3.64645 -1.67655,0.88017 -3.7303,1.32026 -6.16124,1.32026 -3.18542,0 -5.74212,-0.67061 -7.67011,-2.01183 -1.8861,-1.38313 -3.33211,-3.1854 -4.33802,-5.4068 -1.00592,-2.22139 -1.67653,-4.71522 -2.01183,-7.4815 -0.2934,-2.76626 -0.44009,-5.57444 -0.44009,-8.42455 0,-2.80816 0.16765,-5.59539 0.50296,-8.36168 0.3353,-2.80815 1.02687,-5.32294 2.0747,-7.54438 1.04782,-2.22135 2.51478,-4.00266 4.40089,-5.34393 1.88608,-1.38309 4.37991,-2.07465 7.4815,-2.0747 4.56851,5e-5 7.87965,1.21553 9.93342,3.64645 2.09563,2.431 3.20633,5.86788 3.3321,10.31064 l -5.78402,0 c -0.0419,-1.25736 -0.18863,-2.45189 -0.44009,-3.58358 -0.2515,-1.17353 -0.67063,-2.17944 -1.25739,-3.01775 -0.5449,-0.88013 -1.29933,-1.5717 -2.26331,-2.0747 -0.92211,-0.50292 -2.09568,-0.75439 -3.52071,-0.75444 -1.92802,5e-5 -3.45785,0.503 -4.58949,1.50888 -1.13167,0.96404 -2.01185,2.30526 -2.64053,4.02366 -0.5868,1.67657 -0.98497,3.66744 -1.19453,5.97263 -0.16766,2.26334 -0.25149,4.6943 -0.25148,7.2929 -10e-6,2.59863 0.0838,5.05055 0.25148,7.35576 0.20956,2.26332 0.60773,4.2542 1.19453,5.97263 0.62868,1.67653 1.50886,3.01775 2.64053,4.02366 1.13164,0.96401 2.66147,1.44601 4.58949,1.44601 1.67651,0 3.01773,-0.35626 4.02366,-1.06879 1.0059,-0.71252 1.78129,-1.6346 2.32619,-2.76627 0.58676,-1.13164 0.96397,-2.38904 1.13165,-3.77218 0.20954,-1.38313 0.33528,-2.76626 0.37722,-4.14941 l 5.78402,0"
         style="font-size:62.86977386px;font-style:normal;font-variant:normal;font-weight:normal;font-stretch:normal;text-align:start;line-height:125%;letter-spacing:0px;word-spacing:0px;writing-mode:lr-tb;text-anchor:start;fill:#000000;fill-opacity:1;stroke:none;font-family:Helvetica Neue LT Com;-inkscape-font-specification:Helvetica Neue LT Com"
         id="path3169"
         inkscape:connector-curvature="0" />
      <path
         d="m 969.37394,451.27053 23.19895,0 0,4.90384 -17.66641,0 0,14.08283 16.66049,0 0,4.90384 -16.66049,0 0,16.09466 18.42084,0 0,4.90385 -23.95338,0 0,-44.88902"
         style="font-size:62.86977386px;font-style:normal;font-variant:normal;font-weight:normal;font-stretch:normal;text-align:start;line-height:125%;letter-spacing:0px;word-spacing:0px;writing-mode:lr-tb;text-anchor:start;fill:#000000;fill-opacity:1;stroke:none;font-family:Helvetica Neue LT Com;-inkscape-font-specification:Helvetica Neue LT Com"
         id="path3171"
         inkscape:connector-curvature="0" />
      <path
         d="m 1017.5253,462.90144 c 0,-1.17354 -0.1258,-2.24232 -0.3772,-3.20636 -0.2096,-1.00588 -0.5868,-1.84414 -1.1317,-2.51479 -0.5449,-0.71249 -1.2783,-1.25736 -2.2004,-1.63462 -0.8802,-0.41909 -1.9699,-0.62865 -3.2692,-0.6287 -2.3891,5e-5 -4.2333,0.62874 -5.5326,1.8861 -1.2574,1.21552 -1.8861,3.01778 -1.8861,5.4068 0,2.09569 0.5239,3.70934 1.5718,4.84097 1.0478,1.13168 2.3471,2.03282 3.8979,2.7034 1.5927,0.67064 3.2902,1.27838 5.0924,1.82322 1.8442,0.50299 3.5417,1.19455 5.0925,2.07471 1.5927,0.8802 2.9129,2.09568 3.9608,3.64644 1.0478,1.55081 1.5717,3.68838 1.5717,6.41272 0,2.59863 -0.4401,4.75715 -1.3202,6.47559 -0.8383,1.71844 -1.9281,3.08062 -3.2693,4.08653 -1.3412,1.00592 -2.8501,1.71844 -4.5266,2.13757 -1.6346,0.41914 -3.2483,0.6287 -4.841,0.6287 -2.6405,0 -4.8409,-0.3353 -6.6013,-1.00591 -1.7184,-0.67061 -3.1016,-1.63462 -4.14938,-2.89201 -1.00592,-1.25739 -1.7394,-2.80818 -2.20044,-4.65237 -0.41914,-1.88608 -0.6287,-4.02365 -0.6287,-6.41271 l 5.53252,0 c 0,1.2574 0.063,2.5148 0.1886,3.77218 0.1258,1.21549 0.4611,2.32619 1.0059,3.3321 0.5449,1.00592 1.3832,1.82323 2.5148,2.45192 1.1317,0.58679 2.7034,0.88018 4.7153,0.88018 1.0897,0 2.1166,-0.18861 3.0806,-0.56583 0.964,-0.37721 1.7813,-0.90113 2.4519,-1.57174 0.7125,-0.71252 1.2574,-1.55078 1.6346,-2.51479 0.4191,-0.964 0.6287,-2.05374 0.6287,-3.26923 0,-1.59269 -0.3144,-2.892 -0.943,-3.89793 -0.5868,-1.0059 -1.3832,-1.84416 -2.3891,-2.51479 -0.964,-0.7125 -2.0957,-1.27833 -3.3949,-1.69748 -1.2575,-0.46103 -2.5568,-0.92207 -3.898,-1.38314 -1.2993,-0.46102 -2.5986,-0.96398 -3.8979,-1.50887 -1.2574,-0.58676 -2.3891,-1.32024 -3.395,-2.20045 -0.96397,-0.92206 -1.76032,-2.07467 -2.38902,-3.45783 -0.58678,-1.38311 -0.88018,-3.10155 -0.88017,-5.15532 -10e-6,-1.0478 0.14669,-2.26328 0.44008,-3.64645 0.29339,-1.42501 0.90113,-2.78719 1.82323,-4.08654 0.96398,-1.29926 2.30518,-2.389 4.02368,-3.26922 1.7184,-0.92205 4.0027,-1.38309 6.8528,-1.38314 4.317,5e-5 7.4605,1.04787 9.4305,3.14349 2.0118,2.05379 3.0596,5.17631 3.1434,9.3676 l -5.5325,0"
         style="font-size:62.86977386px;font-style:normal;font-variant:normal;font-weight:normal;font-stretch:normal;text-align:start;line-height:125%;letter-spacing:0px;word-spacing:0px;writing-mode:lr-tb;text-anchor:start;fill:#000000;fill-opacity:1;stroke:none;font-family:Helvetica Neue LT Com;-inkscape-font-specification:Helvetica Neue LT Com"
         id="path3173"
         inkscape:connector-curvature="0" />
      <path
         d="m 1039.742,454.91697 c -1.928,5e-5 -3.4578,0.503 -4.5895,1.50888 -1.1317,0.96404 -2.0118,2.30526 -2.6405,4.02366 -0.5868,1.67657 -0.985,3.66744 -1.1945,5.97263 -0.1677,2.26334 -0.2515,4.6943 -0.2515,7.2929 0,2.59863 0.084,5.05055 0.2515,7.35576 0.2095,2.26332 0.6077,4.2542 1.1945,5.97263 0.6287,1.67653 1.5088,3.01775 2.6405,4.02366 1.1317,0.96401 2.6615,1.44601 4.5895,1.44601 1.928,0 3.4578,-0.482 4.5895,-1.44601 1.1316,-1.00591 1.9908,-2.34713 2.5777,-4.02366 0.6286,-1.71843 1.0268,-3.70931 1.1945,-5.97263 0.2095,-2.30521 0.3143,-4.75713 0.3143,-7.35576 0,-2.5986 -0.1048,-5.02956 -0.3143,-7.2929 -0.1677,-2.30519 -0.5659,-4.29606 -1.1945,-5.97263 -0.5869,-1.7184 -1.4461,-3.05962 -2.5777,-4.02366 -1.1317,-1.00588 -2.6615,-1.50883 -4.5895,-1.50888 m 0,-4.52662 c 3.1016,5e-5 5.5954,0.69161 7.4815,2.0747 1.8861,1.34127 3.353,3.12258 4.4009,5.34393 1.0478,2.22144 1.7394,4.73623 2.0747,7.54438 0.3353,2.76629 0.5029,5.55352 0.503,8.36168 -10e-5,2.85011 -0.1677,5.65829 -0.503,8.42455 -0.3353,2.76628 -1.0269,5.26011 -2.0747,7.4815 -1.0479,2.2214 -2.5148,4.02367 -4.4009,5.4068 -1.8861,1.34122 -4.3799,2.01183 -7.4815,2.01183 -3.1016,0 -5.5954,-0.67061 -7.4815,-2.01183 -1.8861,-1.38313 -3.3531,-3.1854 -4.4009,-5.4068 -1.0478,-2.22139 -1.7394,-4.71522 -2.0747,-7.4815 -0.3353,-2.76626 -0.5029,-5.57444 -0.5029,-8.42455 0,-2.80816 0.1676,-5.59539 0.5029,-8.36168 0.3353,-2.80815 1.0269,-5.32294 2.0747,-7.54438 1.0478,-2.22135 2.5148,-4.00266 4.4009,-5.34393 1.8861,-1.38309 4.3799,-2.07465 7.4815,-2.0747"
         style="font-size:62.86977386px;font-style:normal;font-variant:normal;font-weight:normal;font-stretch:normal;text-align:start;line-height:125%;letter-spacing:0px;word-spacing:0px;writing-mode:lr-tb;text-anchor:start;fill:#000000;fill-opacity:1;stroke:none;font-family:Helvetica Neue LT Com;-inkscape-font-specification:Helvetica Neue LT Com"
         id="path3175"
         inkscape:connector-curvature="0" />
      <g
         id="text3111"
         style="font-size:61.99653244px;font-style:normal;font-variant:normal;font-weight:normal;font-stretch:normal;text-align:start;line-height:125%;letter-spacing:0px;word-spacing:0px;writing-mode:lr-tb;text-anchor:start;fill:#000000;fill-opacity:1;stroke:none;font-family:Helvetica Neue LT Com;-inkscape-font-specification:Helvetica Neue LT Com">
        <path
           id="path3154"
           d="m 926.08329,506.07865 5.45569,0 0,39.4298 17.979,0 0,4.83573 -23.43469,0 0,-44.26553"
           inkscape:connector-curvature="0" />
        <path
           id="path3156"
           d="m 953.57003,506.07865 5.4557,0 0,44.26553 -5.4557,0 0,-44.26553"
           inkscape:connector-curvature="0" />
        <path
           id="path3158"
           d="m 971.61877,525.17359 6.26165,0 c 0.57862,2e-5 1.28124,-0.062 2.10788,-0.18599 0.86793,-0.12397 1.69455,-0.43395 2.47986,-0.92995 0.8266,-0.49595 1.50856,-1.23991 2.04589,-2.23188 0.57861,-0.99191 0.86793,-2.33517 0.86795,-4.02977 -2e-5,-2.35584 -0.59932,-4.15373 -1.7979,-5.3937 -1.15729,-1.23989 -3.09984,-1.85986 -5.82767,-1.8599 l -6.13766,0 0,14.63119 m -5.4557,-19.09494 13.57725,0 c 1.44656,5e-5 2.85182,0.18604 4.21576,0.55797 1.3639,0.37202 2.5625,1.01265 3.5958,1.92189 1.07458,0.868 1.92186,2.02526 2.54186,3.47181 0.66126,1.44662 0.99191,3.24452 0.99194,5.3937 -3e-5,0.99197 -0.14469,1.98392 -0.43397,2.97583 -0.28935,0.99198 -0.72333,1.90126 -1.30193,2.72785 -0.53733,0.82665 -1.21929,1.54994 -2.04589,2.16988 -0.78531,0.61999 -1.67393,1.07463 -2.66585,1.36392 l 0,0.12399 c 2.72782,0.66132 4.71171,1.96325 5.95167,3.90579 1.28123,1.94257 1.92186,4.27777 1.92189,7.0056 -3e-5,4.50509 -1.23996,7.74958 -3.71979,9.73346 -2.43855,1.94256 -5.97235,2.91384 -10.60141,2.91384 l -12.02733,0 0,-44.26553 m 5.4557,39.80178 7.43958,0 c 1.44657,0 2.66584,-0.22732 3.6578,-0.68196 0.99192,-0.45464 1.77721,-1.05394 2.35587,-1.7979 0.61994,-0.74396 1.05391,-1.61191 1.30192,-2.60386 0.2893,-0.99193 0.43396,-2.02521 0.43398,-3.09983 -2e-5,-1.52923 -0.22734,-2.81049 -0.68196,-3.84378 -0.45467,-1.07459 -1.07463,-1.94254 -1.8599,-2.60385 -0.78531,-0.70261 -1.71526,-1.19858 -2.78984,-1.48792 -1.0333,-0.33063 -2.14923,-0.49595 -3.34781,-0.49597 l -6.50964,0 0,16.61507"
           inkscape:connector-curvature="0" />
        <path
           id="path3160"
           d="m 1003.8279,526.16553 5.3937,0 c 0.7853,2e-5 1.6946,-0.0413 2.7279,-0.12399 1.0745,-0.0826 2.0871,-0.39262 3.0378,-0.92995 0.9506,-0.53728 1.7359,-1.38456 2.3559,-2.54186 0.6612,-1.15724 0.9919,-2.81048 0.9919,-4.95972 0,-2.23184 -0.682,-3.96774 -2.0459,-5.20771 -1.3639,-1.23989 -3.3478,-1.85986 -5.9517,-1.8599 l -6.5096,0 0,15.62313 m -5.45569,-20.08688 14.32119,0 c 3.5131,5e-5 6.2823,0.97133 8.3075,2.91384 2.0252,1.9426 3.0378,4.67044 3.0379,8.18354 -10e-5,1.19863 -0.124,2.39723 -0.372,3.5958 -0.2067,1.19863 -0.5787,2.31457 -1.1159,3.34781 -0.5374,0.99197 -1.24,1.88059 -2.1079,2.66585 -0.868,0.74399 -1.9426,1.26062 -3.2238,1.54992 l 0,0.12399 c 1.9425,0.20668 3.4304,1.01263 4.4637,2.41787 1.0746,1.40527 1.6739,3.05851 1.7979,4.95972 l 0.372,7.56358 c 0.041,1.23993 0.124,2.25254 0.248,3.03783 0.1239,0.78529 0.2893,1.44658 0.4959,1.98388 0.2067,0.49598 0.434,0.88862 0.682,1.17794 0.2893,0.28932 0.5993,0.5373 0.93,0.74396 l -6.5717,0 c -0.248,-0.24799 -0.4546,-0.61997 -0.6199,-1.11594 -0.1654,-0.49597 -0.31,-1.03327 -0.434,-1.61191 -0.124,-0.61996 -0.2274,-1.23993 -0.31,-1.8599 -0.041,-0.66129 -0.083,-1.26059 -0.124,-1.7979 l -0.372,-6.88161 c -0.124,-1.52923 -0.4133,-2.70717 -0.8679,-3.5338 -0.4134,-0.86794 -0.93,-1.50857 -1.5499,-1.9219 -0.62,-0.45462 -1.302,-0.72327 -2.0459,-0.80595 -0.7027,-0.12397 -1.4053,-0.18597 -2.1079,-0.18599 l -7.3776,0 0,19.7149 -5.45569,0 0,-44.26553"
           inkscape:connector-curvature="0" />
        <path
           id="path3162"
           d="m 1030.5813,506.07865 22.8768,0 0,4.83573 -17.4211,0 0,13.88723 16.4291,0 0,4.83573 -16.4291,0 0,15.87111 18.165,0 0,4.83573 -23.6207,0 0,-44.26553"
           inkscape:connector-curvature="0" />
      </g>
      <path
         sodipodi:type="arc"
         style="fill:#000000"
         id="path3115"
         sodipodi:cx="514.16766"
         sodipodi:cy="488.94958"
         sodipodi:rx="5.0507627"
         sodipodi:ry="3.7880721"
         d="m 519.21843,488.94958 c 0,2.0921 -2.26131,3.78808 -5.05077,3.78808 -2.78946,0 -5.05076,-1.69598 -5.05076,-3.78808 0,-2.09209 2.2613,-3.78807 5.05076,-3.78807 2.78946,0 5.05077,1.69598 5.05077,3.78807 z"
         transform="matrix(0.67484476,0.73795972,-0.73795972,0.67484476,1101.6111,-221.48097)" />
      <g
         id="text3121"
         style="font-size:61.99653244px;font-style:normal;font-variant:normal;font-weight:normal;font-stretch:normal;text-align:start;line-height:125%;letter-spacing:0px;word-spacing:0px;writing-mode:lr-tb;text-anchor:start;fill:#000000;fill-opacity:1;stroke:none;font-family:Helvetica Neue LT Com;-inkscape-font-specification:Helvetica Neue LT Com">
        <path
           id="path3130"
           d="m 926.08329,506.07865 5.45569,0 0,39.4298 17.979,0 0,4.83573 -23.43469,0 0,-44.26553"
           inkscape:connector-curvature="0" />
        <path
           id="path3132"
           d="m 953.57003,506.07865 5.4557,0 0,44.26553 -5.4557,0 0,-44.26553"
           inkscape:connector-curvature="0" />
        <path
           id="path3134"
           d="m 971.61877,525.17359 6.26165,0 c 0.57862,2e-5 1.28124,-0.062 2.10788,-0.18599 0.86793,-0.12397 1.69455,-0.43395 2.47986,-0.92995 0.8266,-0.49595 1.50856,-1.23991 2.04589,-2.23188 0.57861,-0.99191 0.86793,-2.33517 0.86795,-4.02977 -2e-5,-2.35584 -0.59932,-4.15373 -1.7979,-5.3937 -1.15729,-1.23989 -3.09984,-1.85986 -5.82767,-1.8599 l -6.13766,0 0,14.63119 m -5.4557,-19.09494 13.57725,0 c 1.44656,5e-5 2.85182,0.18604 4.21576,0.55797 1.3639,0.37202 2.5625,1.01265 3.5958,1.92189 1.07458,0.868 1.92186,2.02526 2.54186,3.47181 0.66126,1.44662 0.99191,3.24452 0.99194,5.3937 -3e-5,0.99197 -0.14469,1.98392 -0.43397,2.97583 -0.28935,0.99198 -0.72333,1.90126 -1.30193,2.72785 -0.53733,0.82665 -1.21929,1.54994 -2.04589,2.16988 -0.78531,0.61999 -1.67393,1.07463 -2.66585,1.36392 l 0,0.12399 c 2.72782,0.66132 4.71171,1.96325 5.95167,3.90579 1.28123,1.94257 1.92186,4.27777 1.92189,7.0056 -3e-5,4.50509 -1.23996,7.74958 -3.71979,9.73346 -2.43855,1.94256 -5.97235,2.91384 -10.60141,2.91384 l -12.02733,0 0,-44.26553 m 5.4557,39.80178 7.43958,0 c 1.44657,0 2.66584,-0.22732 3.6578,-0.68196 0.99192,-0.45464 1.77721,-1.05394 2.35587,-1.7979 0.61994,-0.74396 1.05391,-1.61191 1.30192,-2.60386 0.2893,-0.99193 0.43396,-2.02521 0.43398,-3.09983 -2e-5,-1.52923 -0.22734,-2.81049 -0.68196,-3.84378 -0.45467,-1.07459 -1.07463,-1.94254 -1.8599,-2.60385 -0.78531,-0.70261 -1.71526,-1.19858 -2.78984,-1.48792 -1.0333,-0.33063 -2.14923,-0.49595 -3.34781,-0.49597 l -6.50964,0 0,16.61507"
           inkscape:connector-curvature="0" />
        <path
           id="path3136"
           d="m 1003.8279,526.16553 5.3937,0 c 0.7853,2e-5 1.6946,-0.0413 2.7279,-0.12399 1.0745,-0.0826 2.0871,-0.39262 3.0378,-0.92995 0.9506,-0.53728 1.7359,-1.38456 2.3559,-2.54186 0.6612,-1.15724 0.9919,-2.81048 0.9919,-4.95972 0,-2.23184 -0.682,-3.96774 -2.0459,-5.20771 -1.3639,-1.23989 -3.3478,-1.85986 -5.9517,-1.8599 l -6.5096,0 0,15.62313 m -5.45569,-20.08688 14.32119,0 c 3.5131,5e-5 6.2823,0.97133 8.3075,2.91384 2.0252,1.9426 3.0378,4.67044 3.0379,8.18354 -10e-5,1.19863 -0.124,2.39723 -0.372,3.5958 -0.2067,1.19863 -0.5787,2.31457 -1.1159,3.34781 -0.5374,0.99197 -1.24,1.88059 -2.1079,2.66585 -0.868,0.74399 -1.9426,1.26062 -3.2238,1.54992 l 0,0.12399 c 1.9425,0.20668 3.4304,1.01263 4.4637,2.41787 1.0746,1.40527 1.6739,3.05851 1.7979,4.95972 l 0.372,7.56358 c 0.041,1.23993 0.124,2.25254 0.248,3.03783 0.1239,0.78529 0.2893,1.44658 0.4959,1.98388 0.2067,0.49598 0.434,0.88862 0.682,1.17794 0.2893,0.28932 0.5993,0.5373 0.93,0.74396 l -6.5717,0 c -0.248,-0.24799 -0.4546,-0.61997 -0.6199,-1.11594 -0.1654,-0.49597 -0.31,-1.03327 -0.434,-1.61191 -0.124,-0.61996 -0.2274,-1.23993 -0.31,-1.8599 -0.041,-0.66129 -0.083,-1.26059 -0.124,-1.7979 l -0.372,-6.88161 c -0.124,-1.52923 -0.4133,-2.70717 -0.8679,-3.5338 -0.4134,-0.86794 -0.93,-1.50857 -1.5499,-1.9219 -0.62,-0.45462 -1.302,-0.72327 -2.0459,-0.80595 -0.7027,-0.12397 -1.4053,-0.18597 -2.1079,-0.18599 l -7.3776,0 0,19.7149 -5.45569,0 0,-44.26553"
           inkscape:connector-curvature="0" />
        <path
           id="path3138"
           d="m 1030.5813,506.07865 22.8768,0 0,4.83573 -17.4211,0 0,13.88723 16.4291,0 0,4.83573 -16.4291,0 0,15.87111 18.165,0 0,4.83573 -23.6207,0 0,-44.26553"
           inkscape:connector-curvature="0" />
      </g>
      <path
         inkscape:connector-curvature="0"
         id="path3125"
         d="m 1059.4647,372.52951 87.8833,0.50508 0,179.30208 -41.4163,0 0,35.86041 -3.7451,2.16228 0,-179.44405 2.8827,-2.88274 z"
         style="fill:#000000;stroke:#000000;stroke-width:1px;stroke-linecap:butt;stroke-linejoin:miter;stroke-opacity:1" />
      <path
         transform="matrix(0.67484476,0.73795972,-0.73795972,0.67484476,1101.6111,-221.48097)"
         d="m 519.21843,488.94958 c 0,2.0921 -2.26131,3.78808 -5.05077,3.78808 -2.78946,0 -5.05076,-1.69598 -5.05076,-3.78808 0,-2.09209 2.2613,-3.78807 5.05076,-3.78807 2.78946,0 5.05077,1.69598 5.05077,3.78807 z"
         sodipodi:ry="3.7880721"
         sodipodi:rx="5.0507627"
         sodipodi:cy="488.94958"
         sodipodi:cx="514.16766"
         id="path3127"
         style="fill:#000000"
         sodipodi:type="arc" />
    </g>
    <g
       id="g3457"
       style="fill:#d40000"
       inkscape:export-filename="/Users/joseluisrivas/Documents/al/graphics/logo_color.png"
       inkscape:export-xdpi="90"
       inkscape:export-ydpi="90">
      <path
         inkscape:connector-curvature="0"
         id="path3394"
         style="font-size:62.86977386000000223px;font-style:normal;font-variant:normal;font-weight:normal;font-stretch:normal;text-align:start;line-height:125%;letter-spacing:0px;word-spacing:0px;writing-mode:lr-tb;text-anchor:start;fill:#d40000;fill-opacity:1;stroke:none;font-family:Helvetica Neue LT Com;-inkscape-font-specification:Helvetica Neue LT Com"
         d="m 216.03142,672.68099 12.071,0 -5.72115,-21.69008 -0.12574,0 -6.22411,21.69008 m 2.70341,-28.03992 7.41863,0 12.071,44.88902 -5.78402,0 -3.20636,-12.32248 -14.33431,0 -3.3321,12.32248 -5.78402,0 12.95118,-44.88902" />
      <path
         inkscape:connector-curvature="0"
         id="path3396"
         style="font-size:62.86977386000000223px;font-style:normal;font-variant:normal;font-weight:normal;font-stretch:normal;text-align:start;line-height:125%;letter-spacing:0px;word-spacing:0px;writing-mode:lr-tb;text-anchor:start;fill:#d40000;fill-opacity:1;stroke:none;font-family:Helvetica Neue LT Com;-inkscape-font-specification:Helvetica Neue LT Com"
         d="m 266.84203,674.12699 c -0.12577,2.13759 -0.46107,4.19133 -1.00591,6.16124 -0.50299,1.92801 -1.27838,3.64645 -2.32618,5.15532 -1.04786,1.50888 -2.43099,2.72436 -4.14941,3.64645 -1.67655,0.88017 -3.73029,1.32026 -6.16124,1.32026 -3.18541,0 -5.74211,-0.67061 -7.67011,-2.01183 -1.8861,-1.38313 -3.3321,-3.1854 -4.33801,-5.4068 -1.00592,-2.22139 -1.67653,-4.71522 -2.01184,-7.4815 -0.29339,-2.76626 -0.44009,-5.57444 -0.44008,-8.42455 -1e-5,-2.80816 0.16765,-5.59539 0.50295,-8.36168 0.33531,-2.80815 1.02687,-5.32294 2.07471,-7.54438 1.04782,-2.22135 2.51478,-4.00266 4.40088,-5.34393 1.88608,-1.38309 4.37991,-2.07465 7.4815,-2.0747 4.56852,5e-5 7.87966,1.21553 9.93343,3.64645 2.09563,2.431 3.20633,5.86788 3.3321,10.31064 l -5.78402,0 c -0.0419,-1.25736 -0.18864,-2.45189 -0.44009,-3.58358 -0.2515,-1.17353 -0.67064,-2.17944 -1.2574,-3.01775 -0.54489,-0.88013 -1.29933,-1.5717 -2.26331,-2.0747 -0.92211,-0.50292 -2.09568,-0.75439 -3.52071,-0.75444 -1.92802,5e-5 -3.45785,0.503 -4.58949,1.50888 -1.13167,0.96404 -2.01184,2.30526 -2.64053,4.02366 -0.58679,1.67657 -0.98497,3.66744 -1.19453,5.97263 -0.16766,2.26334 -0.25148,4.6943 -0.25147,7.2929 -1e-5,2.59863 0.0838,5.05055 0.25147,7.35576 0.20956,2.26332 0.60774,4.2542 1.19453,5.97263 0.62869,1.67653 1.50886,3.01775 2.64053,4.02366 1.13164,0.96401 2.66147,1.44601 4.58949,1.44601 1.67651,0 3.01773,-0.35626 4.02367,-1.06879 1.00589,-0.71252 1.78129,-1.6346 2.32618,-2.76627 0.58676,-1.13164 0.96398,-2.38904 1.13166,-3.77218 0.20954,-1.38313 0.33528,-2.76626 0.37722,-4.14941 l 5.78401,0" />
      <path
         inkscape:connector-curvature="0"
         id="path3398"
         style="font-size:62.86977386000000223px;font-style:normal;font-variant:normal;font-weight:normal;font-stretch:normal;text-align:start;line-height:125%;letter-spacing:0px;word-spacing:0px;writing-mode:lr-tb;text-anchor:start;fill:#d40000;fill-opacity:1;stroke:none;font-family:Helvetica Neue LT Com;-inkscape-font-specification:Helvetica Neue LT Com"
         d="m 299.50485,674.12699 c -0.12577,2.13759 -0.46108,4.19133 -1.00592,6.16124 -0.50298,1.92801 -1.27838,3.64645 -2.32618,5.15532 -1.04785,1.50888 -2.43099,2.72436 -4.1494,3.64645 -1.67655,0.88017 -3.7303,1.32026 -6.16124,1.32026 -3.18542,0 -5.74212,-0.67061 -7.67011,-2.01183 -1.8861,-1.38313 -3.33211,-3.1854 -4.33802,-5.4068 -1.00592,-2.22139 -1.67653,-4.71522 -2.01183,-7.4815 -0.2934,-2.76626 -0.44009,-5.57444 -0.44009,-8.42455 0,-2.80816 0.16765,-5.59539 0.50296,-8.36168 0.3353,-2.80815 1.02687,-5.32294 2.0747,-7.54438 1.04782,-2.22135 2.51478,-4.00266 4.40089,-5.34393 1.88608,-1.38309 4.37991,-2.07465 7.4815,-2.0747 4.56851,5e-5 7.87965,1.21553 9.93342,3.64645 2.09563,2.431 3.20633,5.86788 3.3321,10.31064 l -5.78402,0 c -0.0419,-1.25736 -0.18863,-2.45189 -0.44009,-3.58358 -0.2515,-1.17353 -0.67063,-2.17944 -1.25739,-3.01775 -0.5449,-0.88013 -1.29933,-1.5717 -2.26331,-2.0747 -0.92211,-0.50292 -2.09568,-0.75439 -3.52071,-0.75444 -1.92802,5e-5 -3.45785,0.503 -4.58949,1.50888 -1.13167,0.96404 -2.01185,2.30526 -2.64053,4.02366 -0.5868,1.67657 -0.98497,3.66744 -1.19453,5.97263 -0.16766,2.26334 -0.25149,4.6943 -0.25148,7.2929 -1e-5,2.59863 0.0838,5.05055 0.25148,7.35576 0.20956,2.26332 0.60773,4.2542 1.19453,5.97263 0.62868,1.67653 1.50886,3.01775 2.64053,4.02366 1.13164,0.96401 2.66147,1.44601 4.58949,1.44601 1.67651,0 3.01773,-0.35626 4.02366,-1.06879 1.0059,-0.71252 1.78129,-1.6346 2.32619,-2.76627 0.58676,-1.13164 0.96397,-2.38904 1.13165,-3.77218 0.20954,-1.38313 0.33528,-2.76626 0.37722,-4.14941 l 5.78402,0" />
      <path
         inkscape:connector-curvature="0"
         id="path3400"
         style="font-size:62.86977386000000223px;font-style:normal;font-variant:normal;font-weight:normal;font-stretch:normal;text-align:start;line-height:125%;letter-spacing:0px;word-spacing:0px;writing-mode:lr-tb;text-anchor:start;fill:#d40000;fill-opacity:1;stroke:none;font-family:Helvetica Neue LT Com;-inkscape-font-specification:Helvetica Neue LT Com"
         d="m 304.69357,644.64107 23.19895,0 0,4.90384 -17.66641,0 0,14.08283 16.66049,0 0,4.90384 -16.66049,0 0,16.09466 18.42084,0 0,4.90385 -23.95338,0 0,-44.88902" />
      <path
         inkscape:connector-curvature="0"
         id="path3402"
         style="font-size:62.86977386000000223px;font-style:normal;font-variant:normal;font-weight:normal;font-stretch:normal;text-align:start;line-height:125%;letter-spacing:0px;word-spacing:0px;writing-mode:lr-tb;text-anchor:start;fill:#d40000;fill-opacity:1;stroke:none;font-family:Helvetica Neue LT Com;-inkscape-font-specification:Helvetica Neue LT Com"
         d="m 352.84493,656.27198 c 0,-1.17354 -0.1258,-2.24232 -0.3772,-3.20636 -0.2096,-1.00588 -0.5868,-1.84414 -1.1317,-2.51479 -0.5449,-0.71249 -1.2783,-1.25736 -2.2004,-1.63462 -0.8802,-0.41909 -1.9699,-0.62865 -3.2692,-0.6287 -2.3891,5e-5 -4.2333,0.62874 -5.5326,1.8861 -1.2574,1.21552 -1.8861,3.01778 -1.8861,5.4068 0,2.09569 0.5239,3.70934 1.5718,4.84097 1.0478,1.13168 2.3471,2.03282 3.8979,2.7034 1.5927,0.67064 3.2902,1.27838 5.0924,1.82322 1.8442,0.50299 3.5417,1.19455 5.0925,2.07471 1.5927,0.8802 2.9129,2.09568 3.9608,3.64644 1.0478,1.55081 1.5717,3.68838 1.5717,6.41272 0,2.59863 -0.4401,4.75715 -1.3202,6.47559 -0.8383,1.71844 -1.9281,3.08062 -3.2693,4.08653 -1.3412,1.00592 -2.8501,1.71844 -4.5266,2.13757 -1.6346,0.41914 -3.2483,0.6287 -4.841,0.6287 -2.6405,0 -4.8409,-0.3353 -6.6013,-1.00591 -1.7184,-0.67061 -3.1016,-1.63462 -4.14938,-2.89201 -1.00592,-1.25739 -1.7394,-2.80818 -2.20044,-4.65237 -0.41914,-1.88608 -0.6287,-4.02365 -0.6287,-6.41271 l 5.53252,0 c 0,1.2574 0.063,2.5148 0.1886,3.77218 0.1258,1.21549 0.4611,2.32619 1.0059,3.3321 0.5449,1.00592 1.3832,1.82323 2.5148,2.45192 1.1317,0.58679 2.7034,0.88018 4.7153,0.88018 1.0897,0 2.1166,-0.18861 3.0806,-0.56583 0.964,-0.37721 1.7813,-0.90113 2.4519,-1.57174 0.7125,-0.71252 1.2574,-1.55078 1.6346,-2.51479 0.4191,-0.964 0.6287,-2.05374 0.6287,-3.26923 0,-1.59269 -0.3144,-2.892 -0.943,-3.89793 -0.5868,-1.0059 -1.3832,-1.84416 -2.3891,-2.51479 -0.964,-0.7125 -2.0957,-1.27833 -3.3949,-1.69748 -1.2575,-0.46103 -2.5568,-0.92207 -3.898,-1.38314 -1.2993,-0.46102 -2.5986,-0.96398 -3.8979,-1.50887 -1.2574,-0.58676 -2.3891,-1.32024 -3.395,-2.20045 -0.96397,-0.92206 -1.76032,-2.07467 -2.38902,-3.45783 -0.58678,-1.38311 -0.88018,-3.10155 -0.88017,-5.15532 -1e-5,-1.0478 0.14669,-2.26328 0.44008,-3.64645 0.29339,-1.42501 0.90113,-2.78719 1.82323,-4.08654 0.96398,-1.29926 2.30518,-2.389 4.02368,-3.26922 1.7184,-0.92205 4.0027,-1.38309 6.8528,-1.38314 4.317,5e-5 7.4605,1.04787 9.4305,3.14349 2.0118,2.05379 3.0596,5.17631 3.1434,9.3676 l -5.5325,0" />
      <path
         inkscape:connector-curvature="0"
         id="path3404"
         style="font-size:62.86977386000000223px;font-style:normal;font-variant:normal;font-weight:normal;font-stretch:normal;text-align:start;line-height:125%;letter-spacing:0px;word-spacing:0px;writing-mode:lr-tb;text-anchor:start;fill:#d40000;fill-opacity:1;stroke:none;font-family:Helvetica Neue LT Com;-inkscape-font-specification:Helvetica Neue LT Com"
         d="m 375.06163,648.28751 c -1.928,5e-5 -3.4578,0.503 -4.5895,1.50888 -1.1317,0.96404 -2.0118,2.30526 -2.6405,4.02366 -0.5868,1.67657 -0.985,3.66744 -1.1945,5.97263 -0.1677,2.26334 -0.2515,4.6943 -0.2515,7.2929 0,2.59863 0.084,5.05055 0.2515,7.35576 0.2095,2.26332 0.6077,4.2542 1.1945,5.97263 0.6287,1.67653 1.5088,3.01775 2.6405,4.02366 1.1317,0.96401 2.6615,1.44601 4.5895,1.44601 1.928,0 3.4578,-0.482 4.5895,-1.44601 1.1316,-1.00591 1.9908,-2.34713 2.5777,-4.02366 0.6286,-1.71843 1.0268,-3.70931 1.1945,-5.97263 0.2095,-2.30521 0.3143,-4.75713 0.3143,-7.35576 0,-2.5986 -0.1048,-5.02956 -0.3143,-7.2929 -0.1677,-2.30519 -0.5659,-4.29606 -1.1945,-5.97263 -0.5869,-1.7184 -1.4461,-3.05962 -2.5777,-4.02366 -1.1317,-1.00588 -2.6615,-1.50883 -4.5895,-1.50888 m 0,-4.52662 c 3.1016,5e-5 5.5954,0.69161 7.4815,2.0747 1.8861,1.34127 3.353,3.12258 4.4009,5.34393 1.0478,2.22144 1.7394,4.73623 2.0747,7.54438 0.3353,2.76629 0.5029,5.55352 0.503,8.36168 -10e-5,2.85011 -0.1677,5.65829 -0.503,8.42455 -0.3353,2.76628 -1.0269,5.26011 -2.0747,7.4815 -1.0479,2.2214 -2.5148,4.02367 -4.4009,5.4068 -1.8861,1.34122 -4.3799,2.01183 -7.4815,2.01183 -3.1016,0 -5.5954,-0.67061 -7.4815,-2.01183 -1.8861,-1.38313 -3.3531,-3.1854 -4.4009,-5.4068 -1.0478,-2.22139 -1.7394,-4.71522 -2.0747,-7.4815 -0.3353,-2.76626 -0.5029,-5.57444 -0.5029,-8.42455 0,-2.80816 0.1676,-5.59539 0.5029,-8.36168 0.3353,-2.80815 1.0269,-5.32294 2.0747,-7.54438 1.0478,-2.22135 2.5148,-4.00266 4.4009,-5.34393 1.8861,-1.38309 4.3799,-2.07465 7.4815,-2.0747" />
    </g>
    <g
       id="g3406"
       style="font-size:61.99653244px;font-style:normal;font-variant:normal;font-weight:normal;font-stretch:normal;text-align:start;line-height:125%;letter-spacing:0px;word-spacing:0px;writing-mode:lr-tb;text-anchor:start;fill:#000000;fill-opacity:1;stroke:none;font-family:Helvetica Neue LT Com;-inkscape-font-specification:Helvetica Neue LT Com"
       transform="translate(-664.68037,193.37054)"
       inkscape:export-filename="/Users/joseluisrivas/Documents/al/graphics/logo_color.png"
       inkscape:export-xdpi="90"
       inkscape:export-ydpi="90">
      <path
         id="path3408"
         d="m 926.08329,506.07865 5.45569,0 0,39.4298 17.979,0 0,4.83573 -23.43469,0 0,-44.26553"
         inkscape:connector-curvature="0" />
      <path
         id="path3410"
         d="m 953.57003,506.07865 5.4557,0 0,44.26553 -5.4557,0 0,-44.26553"
         inkscape:connector-curvature="0" />
      <path
         id="path3412"
         d="m 971.61877,525.17359 6.26165,0 c 0.57862,2e-5 1.28124,-0.062 2.10788,-0.18599 0.86793,-0.12397 1.69455,-0.43395 2.47986,-0.92995 0.8266,-0.49595 1.50856,-1.23991 2.04589,-2.23188 0.57861,-0.99191 0.86793,-2.33517 0.86795,-4.02977 -2e-5,-2.35584 -0.59932,-4.15373 -1.7979,-5.3937 -1.15729,-1.23989 -3.09984,-1.85986 -5.82767,-1.8599 l -6.13766,0 0,14.63119 m -5.4557,-19.09494 13.57725,0 c 1.44656,5e-5 2.85182,0.18604 4.21576,0.55797 1.3639,0.37202 2.5625,1.01265 3.5958,1.92189 1.07458,0.868 1.92186,2.02526 2.54186,3.47181 0.66126,1.44662 0.99191,3.24452 0.99194,5.3937 -3e-5,0.99197 -0.14469,1.98392 -0.43397,2.97583 -0.28935,0.99198 -0.72333,1.90126 -1.30193,2.72785 -0.53733,0.82665 -1.21929,1.54994 -2.04589,2.16988 -0.78531,0.61999 -1.67393,1.07463 -2.66585,1.36392 l 0,0.12399 c 2.72782,0.66132 4.71171,1.96325 5.95167,3.90579 1.28123,1.94257 1.92186,4.27777 1.92189,7.0056 -3e-5,4.50509 -1.23996,7.74958 -3.71979,9.73346 -2.43855,1.94256 -5.97235,2.91384 -10.60141,2.91384 l -12.02733,0 0,-44.26553 m 5.4557,39.80178 7.43958,0 c 1.44657,0 2.66584,-0.22732 3.6578,-0.68196 0.99192,-0.45464 1.77721,-1.05394 2.35587,-1.7979 0.61994,-0.74396 1.05391,-1.61191 1.30192,-2.60386 0.2893,-0.99193 0.43396,-2.02521 0.43398,-3.09983 -2e-5,-1.52923 -0.22734,-2.81049 -0.68196,-3.84378 -0.45467,-1.07459 -1.07463,-1.94254 -1.8599,-2.60385 -0.78531,-0.70261 -1.71526,-1.19858 -2.78984,-1.48792 -1.0333,-0.33063 -2.14923,-0.49595 -3.34781,-0.49597 l -6.50964,0 0,16.61507"
         inkscape:connector-curvature="0" />
      <path
         id="path3414"
         d="m 1003.8279,526.16553 5.3937,0 c 0.7853,2e-5 1.6946,-0.0413 2.7279,-0.12399 1.0745,-0.0826 2.0871,-0.39262 3.0378,-0.92995 0.9506,-0.53728 1.7359,-1.38456 2.3559,-2.54186 0.6612,-1.15724 0.9919,-2.81048 0.9919,-4.95972 0,-2.23184 -0.682,-3.96774 -2.0459,-5.20771 -1.3639,-1.23989 -3.3478,-1.85986 -5.9517,-1.8599 l -6.5096,0 0,15.62313 m -5.45569,-20.08688 14.32119,0 c 3.5131,5e-5 6.2823,0.97133 8.3075,2.91384 2.0252,1.9426 3.0378,4.67044 3.0379,8.18354 -10e-5,1.19863 -0.124,2.39723 -0.372,3.5958 -0.2067,1.19863 -0.5787,2.31457 -1.1159,3.34781 -0.5374,0.99197 -1.24,1.88059 -2.1079,2.66585 -0.868,0.74399 -1.9426,1.26062 -3.2238,1.54992 l 0,0.12399 c 1.9425,0.20668 3.4304,1.01263 4.4637,2.41787 1.0746,1.40527 1.6739,3.05851 1.7979,4.95972 l 0.372,7.56358 c 0.041,1.23993 0.124,2.25254 0.248,3.03783 0.1239,0.78529 0.2893,1.44658 0.4959,1.98388 0.2067,0.49598 0.434,0.88862 0.682,1.17794 0.2893,0.28932 0.5993,0.5373 0.93,0.74396 l -6.5717,0 c -0.248,-0.24799 -0.4546,-0.61997 -0.6199,-1.11594 -0.1654,-0.49597 -0.31,-1.03327 -0.434,-1.61191 -0.124,-0.61996 -0.2274,-1.23993 -0.31,-1.8599 -0.041,-0.66129 -0.083,-1.26059 -0.124,-1.7979 l -0.372,-6.88161 c -0.124,-1.52923 -0.4133,-2.70717 -0.8679,-3.5338 -0.4134,-0.86794 -0.93,-1.50857 -1.5499,-1.9219 -0.62,-0.45462 -1.302,-0.72327 -2.0459,-0.80595 -0.7027,-0.12397 -1.4053,-0.18597 -2.1079,-0.18599 l -7.3776,0 0,19.7149 -5.45569,0 0,-44.26553"
         inkscape:connector-curvature="0" />
      <path
         id="path3416"
         d="m 1030.5813,506.07865 22.8768,0 0,4.83573 -17.4211,0 0,13.88723 16.4291,0 0,4.83573 -16.4291,0 0,15.87111 18.165,0 0,4.83573 -23.6207,0 0,-44.26553"
         inkscape:connector-curvature="0" />
    </g>
    <path
       sodipodi:type="arc"
       style="fill:#000000"
       id="path3418"
       sodipodi:cx="514.16766"
       sodipodi:cy="488.94958"
       sodipodi:rx="5.0507627"
       sodipodi:ry="3.7880721"
       d="m 519.21843,488.94958 a 5.0507627,3.7880721 0 1 1 -10.10153,0 5.0507627,3.7880721 0 1 1 10.10153,0 z"
       transform="matrix(0.67484476,0.73795972,-0.73795972,0.67484476,436.93073,-28.11043)"
       inkscape:export-filename="/Users/joseluisrivas/Documents/al/graphics/logo_color.png"
       inkscape:export-xdpi="90"
       inkscape:export-ydpi="90" />
    <g
       id="g3420"
       style="font-size:61.99653244px;font-style:normal;font-variant:normal;font-weight:normal;font-stretch:normal;text-align:start;line-height:125%;letter-spacing:0px;word-spacing:0px;writing-mode:lr-tb;text-anchor:start;fill:#000000;fill-opacity:1;stroke:none;font-family:Helvetica Neue LT Com;-inkscape-font-specification:Helvetica Neue LT Com"
       transform="translate(-664.68037,193.37054)"
       inkscape:export-filename="/Users/joseluisrivas/Documents/al/graphics/logo_color.png"
       inkscape:export-xdpi="90"
       inkscape:export-ydpi="90">
      <path
         id="path3422"
         d="m 926.08329,506.07865 5.45569,0 0,39.4298 17.979,0 0,4.83573 -23.43469,0 0,-44.26553"
         inkscape:connector-curvature="0" />
      <path
         id="path3424"
         d="m 953.57003,506.07865 5.4557,0 0,44.26553 -5.4557,0 0,-44.26553"
         inkscape:connector-curvature="0" />
      <path
         id="path3426"
         d="m 971.61877,525.17359 6.26165,0 c 0.57862,2e-5 1.28124,-0.062 2.10788,-0.18599 0.86793,-0.12397 1.69455,-0.43395 2.47986,-0.92995 0.8266,-0.49595 1.50856,-1.23991 2.04589,-2.23188 0.57861,-0.99191 0.86793,-2.33517 0.86795,-4.02977 -2e-5,-2.35584 -0.59932,-4.15373 -1.7979,-5.3937 -1.15729,-1.23989 -3.09984,-1.85986 -5.82767,-1.8599 l -6.13766,0 0,14.63119 m -5.4557,-19.09494 13.57725,0 c 1.44656,5e-5 2.85182,0.18604 4.21576,0.55797 1.3639,0.37202 2.5625,1.01265 3.5958,1.92189 1.07458,0.868 1.92186,2.02526 2.54186,3.47181 0.66126,1.44662 0.99191,3.24452 0.99194,5.3937 -3e-5,0.99197 -0.14469,1.98392 -0.43397,2.97583 -0.28935,0.99198 -0.72333,1.90126 -1.30193,2.72785 -0.53733,0.82665 -1.21929,1.54994 -2.04589,2.16988 -0.78531,0.61999 -1.67393,1.07463 -2.66585,1.36392 l 0,0.12399 c 2.72782,0.66132 4.71171,1.96325 5.95167,3.90579 1.28123,1.94257 1.92186,4.27777 1.92189,7.0056 -3e-5,4.50509 -1.23996,7.74958 -3.71979,9.73346 -2.43855,1.94256 -5.97235,2.91384 -10.60141,2.91384 l -12.02733,0 0,-44.26553 m 5.4557,39.80178 7.43958,0 c 1.44657,0 2.66584,-0.22732 3.6578,-0.68196 0.99192,-0.45464 1.77721,-1.05394 2.35587,-1.7979 0.61994,-0.74396 1.05391,-1.61191 1.30192,-2.60386 0.2893,-0.99193 0.43396,-2.02521 0.43398,-3.09983 -2e-5,-1.52923 -0.22734,-2.81049 -0.68196,-3.84378 -0.45467,-1.07459 -1.07463,-1.94254 -1.8599,-2.60385 -0.78531,-0.70261 -1.71526,-1.19858 -2.78984,-1.48792 -1.0333,-0.33063 -2.14923,-0.49595 -3.34781,-0.49597 l -6.50964,0 0,16.61507"
         inkscape:connector-curvature="0" />
      <path
         id="path3428"
         d="m 1003.8279,526.16553 5.3937,0 c 0.7853,2e-5 1.6946,-0.0413 2.7279,-0.12399 1.0745,-0.0826 2.0871,-0.39262 3.0378,-0.92995 0.9506,-0.53728 1.7359,-1.38456 2.3559,-2.54186 0.6612,-1.15724 0.9919,-2.81048 0.9919,-4.95972 0,-2.23184 -0.682,-3.96774 -2.0459,-5.20771 -1.3639,-1.23989 -3.3478,-1.85986 -5.9517,-1.8599 l -6.5096,0 0,15.62313 m -5.45569,-20.08688 14.32119,0 c 3.5131,5e-5 6.2823,0.97133 8.3075,2.91384 2.0252,1.9426 3.0378,4.67044 3.0379,8.18354 -10e-5,1.19863 -0.124,2.39723 -0.372,3.5958 -0.2067,1.19863 -0.5787,2.31457 -1.1159,3.34781 -0.5374,0.99197 -1.24,1.88059 -2.1079,2.66585 -0.868,0.74399 -1.9426,1.26062 -3.2238,1.54992 l 0,0.12399 c 1.9425,0.20668 3.4304,1.01263 4.4637,2.41787 1.0746,1.40527 1.6739,3.05851 1.7979,4.95972 l 0.372,7.56358 c 0.041,1.23993 0.124,2.25254 0.248,3.03783 0.1239,0.78529 0.2893,1.44658 0.4959,1.98388 0.2067,0.49598 0.434,0.88862 0.682,1.17794 0.2893,0.28932 0.5993,0.5373 0.93,0.74396 l -6.5717,0 c -0.248,-0.24799 -0.4546,-0.61997 -0.6199,-1.11594 -0.1654,-0.49597 -0.31,-1.03327 -0.434,-1.61191 -0.124,-0.61996 -0.2274,-1.23993 -0.31,-1.8599 -0.041,-0.66129 -0.083,-1.26059 -0.124,-1.7979 l -0.372,-6.88161 c -0.124,-1.52923 -0.4133,-2.70717 -0.8679,-3.5338 -0.4134,-0.86794 -0.93,-1.50857 -1.5499,-1.9219 -0.62,-0.45462 -1.302,-0.72327 -2.0459,-0.80595 -0.7027,-0.12397 -1.4053,-0.18597 -2.1079,-0.18599 l -7.3776,0 0,19.7149 -5.45569,0 0,-44.26553"
         inkscape:connector-curvature="0" />
      <path
         id="path3430"
         d="m 1030.5813,506.07865 22.8768,0 0,4.83573 -17.4211,0 0,13.88723 16.4291,0 0,4.83573 -16.4291,0 0,15.87111 18.165,0 0,4.83573 -23.6207,0 0,-44.26553"
         inkscape:connector-curvature="0" />
    </g>
    <path
       inkscape:connector-curvature="0"
       id="path3432"
       d="m 394.78433,565.90005 87.8833,0.50508 0,179.30208 -41.4163,0 0,35.86041 -3.7451,2.16228 0,-179.44405 2.8827,-2.88274 z"
       style="fill:#000000;stroke:#000000;stroke-width:1px;stroke-linecap:butt;stroke-linejoin:miter;stroke-opacity:1"
       inkscape:export-filename="/Users/joseluisrivas/Documents/al/graphics/logo_color.png"
       inkscape:export-xdpi="90"
       inkscape:export-ydpi="90" />
    <path
       transform="matrix(0.67484476,0.73795972,-0.73795972,0.67484476,436.93073,-28.11043)"
       d="m 519.21843,488.94958 a 5.0507627,3.7880721 0 1 1 -10.10153,0 5.0507627,3.7880721 0 1 1 10.10153,0 z"
       sodipodi:ry="3.7880721"
       sodipodi:rx="5.0507627"
       sodipodi:cy="488.94958"
       sodipodi:cx="514.16766"
       id="path3434"
       style="fill:#000000"
       sodipodi:type="arc"
       inkscape:export-filename="/Users/joseluisrivas/Documents/al/graphics/logo_color.png"
       inkscape:export-xdpi="90"
       inkscape:export-ydpi="90" />
  </g>
</svg>
